<svg width="71" height="60" viewBox="0 0 71 60" fill="none" xmlns="http://www.w3.org/2000/svg">
<path d="M43.5712 1.61641C39.578 -0.204059 33.2558 -0.59439 28.487 1.74632C19.7244 -2.28496 9.1869 0.575984 4.08474 11.2384C0.979518 17.4799 3.86363 23.5912 1.97786 27.883C0.314133 32.5644 -0.240399 32.8241 0.0920324 33.7348C0.313649 34.3849 1.09033 35.4253 2.42101 35.6852C2.64263 36.5951 2.75395 37.3757 2.75395 37.6356C2.53234 38.2857 2.64314 39.0658 3.1977 39.3261L3.86305 39.7164C3.75224 40.7569 3.08688 42.187 4.08467 42.8371C5.63754 43.8775 3.3085 45.4376 5.19379 48.0381C6.4137 49.7287 9.18701 49.8586 9.8524 49.4683C9.8524 49.4683 11.6268 48.5584 13.5127 49.7281C15.6201 50.8984 17.3945 54.1491 18.5042 58.9603C18.615 59.4805 19.0588 59.8702 19.6134 59.8702H19.9463C20.5009 59.7403 20.9446 58.9603 20.7225 58.3095C19.5026 52.5883 17.3951 48.9474 14.6218 47.3868C12.1815 46.0866 10.0741 46.7367 9.29784 46.9965C8.18873 46.9965 7.30129 46.7367 6.96886 46.3464C6.74725 46.2177 6.63643 45.8279 6.63643 45.5675C7.30179 43.6171 6.63643 42.1865 5.86026 41.2765L6.1932 39.3261C6.30401 38.8059 6.08239 38.1557 5.63864 37.8959L4.97328 37.5056C4.97328 36.3353 4.52954 35.0351 4.30792 34.1246C3.97498 32.9543 3.08801 33.4745 2.4221 33.0841L3.97497 29.0529C6.19322 23.8518 3.30961 18.0002 5.86079 12.6688C8.18977 7.85746 13.8467 0.445767 25.4929 3.69638C22.2765 6.16694 20.3906 9.2876 19.2814 11.3684C17.6177 14.7495 17.7286 18.13 17.9502 22.9414C18.2831 27.6227 16.5081 29.0529 15.3989 32.8236C15.2881 33.2139 15.2881 33.6036 15.3989 33.8641C15.6206 34.5142 16.3972 35.5546 17.7279 35.8145C17.9495 36.7244 18.0609 37.505 18.0609 37.7649C17.8392 38.415 17.9501 39.1951 18.5046 39.4554L19.17 39.8457C19.0592 40.8862 18.3938 42.3163 19.3916 42.9664C20.3899 43.6165 19.8353 44.6569 19.7245 45.0466C19.3916 47.3872 20.8336 49.9878 24.8268 49.728C24.9376 49.728 25.1597 49.728 25.2705 49.5981C25.2705 49.5981 27.045 48.6882 28.9308 49.8579C31.0382 51.0282 32.8127 54.2789 33.9224 59.0901C34.0332 59.6103 34.4769 60 35.0315 60H35.3644C35.919 59.8701 36.3627 59.0901 36.1406 58.4393C34.9207 52.7181 32.8133 49.0772 30.04 47.5166C27.5996 46.2164 25.4922 46.8665 24.716 47.1263C23.6069 47.1263 22.0541 46.8665 22.0541 45.5656C22.7194 43.6152 22.0541 42.1846 21.2779 41.2745C21.3887 40.2341 22.1654 38.5442 21.0563 37.8935L20.3909 37.5032C20.3909 36.3329 19.9472 35.0326 19.7256 34.1222C19.3926 32.9518 18.5056 33.472 17.8397 33.0817L19.3926 29.0505C21.6109 23.9794 18.7272 17.9978 21.2784 12.6664C23.6074 7.85504 29.1535 0.573309 40.5785 3.56401C37.2512 6.03457 35.3654 9.28518 34.2563 11.366C31.2614 17.6075 34.1455 23.589 32.2598 28.0107L30.3724 32.6949C30.2616 33.0852 30.2616 33.4749 30.3724 33.7354C30.594 34.3855 31.3707 35.4259 32.7014 35.6858C32.923 36.5957 33.0343 37.3763 33.0343 37.6362C32.8127 38.2863 33.0343 39.0664 33.478 39.3267L34.1434 39.7171C34.0326 40.7575 33.3672 42.0577 34.365 42.8377C35.3633 43.6177 34.8088 44.6582 34.698 44.9179C34.698 45.0479 34.4763 46.7384 35.4741 48.0386C36.694 49.7291 39.4674 49.8591 40.1327 49.4687C40.1327 49.4687 41.9072 48.5588 43.793 49.7285C45.9004 50.8989 47.6749 54.1495 48.7846 58.9607C48.8954 59.6108 49.3391 59.8706 49.8937 59.8706H50.2266C50.7812 59.7407 51.2249 58.9607 51.0028 58.3099C49.7829 52.5888 47.6755 48.9478 44.9022 47.3873C42.4618 46.087 40.3544 46.7371 39.5782 46.9969C38.3583 46.9969 37.027 46.7371 37.027 45.4362C37.6923 43.6158 37.027 42.0552 36.2508 41.1452L36.5837 39.1948C36.8054 37.8945 35.5854 37.634 35.2524 37.3743C35.2524 36.204 34.9195 34.9037 34.5871 33.9933C34.2541 32.8229 33.3672 33.3431 32.7013 32.9528L34.2541 28.9215C36.4724 23.7205 33.478 17.9989 36.14 12.5375C45.3463 -6.31399 71.9662 4.34801 68.417 24.8933C68.3062 25.5435 68.6386 26.3235 69.3045 26.454C69.8591 26.584 70.5244 26.1942 70.6358 25.4136C73.741 7.20889 56.3268 -4.23438 43.5707 1.61828L43.5712 1.61641Z" fill="url(#paint0_linear_20_11)"/>
<path d="M65.1995 25.6717L62.7591 25.1515C62.5375 24.3715 62.3154 23.5908 61.9829 22.8109L63.3142 20.3403C63.758 19.5603 63.6472 18.5199 63.0926 17.8698L61.4289 15.9194C60.8743 15.2692 59.9869 15.1393 59.3215 15.6595L57.3249 17.2203C56.6596 16.8299 55.9936 16.4402 55.3284 16.1798L54.8846 13.4495C54.7738 12.5396 53.9971 11.8888 53.2209 11.8888L51.0021 11.8882C50.226 11.8882 49.5601 12.5383 49.3384 13.4489L48.8947 16.1792C48.2293 16.439 47.4527 16.8293 46.8981 17.2197L44.7907 15.7895C44.1254 15.2693 43.2379 15.3992 42.6833 16.0493L41.0196 17.9998C40.465 18.6499 40.3542 19.6903 40.798 20.4703L42.1293 22.9409C41.7963 23.7209 41.5747 24.5016 41.3531 25.2815L38.9127 25.8017C38.1366 25.9316 37.5815 26.8421 37.5815 27.7521V30.4825C37.5815 31.3924 38.136 32.173 38.9127 32.4329L41.464 33.083C41.6856 33.863 41.9077 34.5131 42.2401 35.1632L40.7981 37.7638C40.3544 38.5438 40.4652 39.5842 41.0197 40.2343L42.6835 42.1848C43.238 42.8349 44.1255 42.9648 44.7909 42.4446L47.1198 40.6241C47.6744 40.8839 48.229 41.2742 48.7836 41.4041L49.3381 44.5248C49.4489 45.4347 50.2256 46.0855 51.0018 46.0855L53.2206 46.0867C53.9968 46.0867 54.6626 45.4365 54.8843 44.526L55.4389 41.4053C55.9935 41.1455 56.548 40.8851 57.1026 40.6253L59.4316 42.4458C59.6532 42.7056 59.9862 42.8361 60.3191 42.8361C60.7628 42.8361 61.2066 42.5763 61.539 42.3159L63.2028 40.3654C63.7573 39.7153 63.8681 38.6749 63.4244 37.8949L61.9824 35.2943C62.3153 34.6442 62.5369 33.8642 62.7585 33.2141L65.3097 32.564C66.0859 32.4341 66.641 31.5236 66.641 30.6136V27.8832C66.5307 26.7117 65.9762 25.8018 65.2001 25.6718L65.1995 25.6717ZM64.312 29.7024L61.5392 30.3525C61.0954 30.4824 60.763 30.8727 60.6517 31.2624C60.4301 32.3029 60.0971 33.2129 59.5426 34.1233C59.3209 34.5137 59.3209 35.1638 59.5426 35.5535L61.0954 38.4144L60.0971 39.5847L57.6568 37.6343C57.3238 37.3745 56.8806 37.3745 56.4369 37.6343C55.6607 38.1545 54.884 38.5442 53.9965 38.8046C53.5528 38.9345 53.2203 39.3248 53.2203 39.845L52.6658 43.2261H51.3345L50.7799 39.845C50.6691 39.3248 50.3362 38.9351 50.0038 38.8046C49.1163 38.5448 48.34 38.1545 47.5634 37.6343C47.2305 37.3745 46.7872 37.3745 46.3435 37.6343L43.9031 39.5847L42.9048 38.4144L44.4577 35.5535C44.6793 35.1632 44.6793 34.513 44.4577 34.1233C44.0139 33.2134 43.5702 32.3029 43.3486 31.2624C43.2378 30.7422 42.9048 30.3525 42.4611 30.3525L39.9099 29.7024V28.1417L42.5718 27.4916C43.0155 27.3617 43.348 26.9713 43.4593 26.4511C43.6809 25.4107 44.0139 24.3709 44.4576 23.3305C44.6792 22.9401 44.6792 22.4205 44.4576 21.9003L42.9047 19.2998L43.903 18.1295L46.1213 19.82C46.4542 20.0798 47.0088 20.0798 47.3412 19.82C48.1174 19.1699 49.1157 18.7795 50.0031 18.5197C50.4469 18.3898 50.7793 17.9995 50.8906 17.4793L51.4452 14.4884H52.7765L53.331 17.4793C53.4419 17.9995 53.7748 18.3892 54.2185 18.5197C55.2168 18.7795 56.1044 19.1699 56.8805 19.82C57.2134 20.0798 57.768 20.0798 58.1004 19.82L60.3187 18.1295L61.3169 19.2998L59.7641 21.9003C59.5425 22.2906 59.5425 22.8102 59.7641 23.3305C60.2078 24.2404 60.6516 25.2809 60.7624 26.4511C60.8732 26.9713 61.2061 27.361 61.6499 27.4916L64.3118 28.1417L64.312 29.7024Z" fill="url(#paint1_linear_20_11)"/>
<path d="M52.1113 21.7715C48.784 21.7715 46.0107 25.0221 46.0107 28.9234C46.0107 32.8241 48.7835 36.0753 52.1113 36.0753C55.4387 36.0753 58.212 32.8247 58.212 28.9234C58.2115 25.0227 55.4387 21.7715 52.1113 21.7715ZM52.1113 33.4748C50.0039 33.4748 48.2295 31.3946 48.2295 28.924C48.2295 26.4535 50.0039 24.3732 52.1113 24.3732C54.2187 24.3732 55.9932 26.4535 55.9932 28.924C55.9932 31.394 54.2187 33.4748 52.1113 33.4748Z" fill="url(#paint2_linear_20_11)"/>
<defs>
<linearGradient id="paint0_linear_20_11" x1="35.5" y1="0" x2="35.5" y2="60" gradientUnits="userSpaceOnUse">
<stop stop-color="#29AAE3"/>
<stop offset="1" stop-color="#2E3192"/>
</linearGradient>
<linearGradient id="paint1_linear_20_11" x1="52.1112" y1="11.8882" x2="52.1112" y2="46.0867" gradientUnits="userSpaceOnUse">
<stop stop-color="#29AAE3"/>
<stop offset="1" stop-color="#2E3192"/>
</linearGradient>
<linearGradient id="paint2_linear_20_11" x1="52.1113" y1="21.7715" x2="52.1113" y2="36.0753" gradientUnits="userSpaceOnUse">
<stop stop-color="#29AAE3"/>
<stop offset="1" stop-color="#2E3192"/>
</linearGradient>
</defs>
</svg>
