<svg width="60" height="37" viewBox="0 0 60 37" fill="none" xmlns="http://www.w3.org/2000/svg">
<path d="M30 12C26.6863 12 24 9.3133 24 6C24 2.6863 26.6863 0 30 0C33.314 0 36 2.6863 36 6C35.9965 9.3125 33.3125 11.9965 30 12ZM30 2C27.791 2 26 3.791 26 6C26 8.209 27.791 10 30 10C32.209 10 34 8.209 34 6C34 3.791 32.209 2 30 2ZM47 16C43.6863 16 41 13.3133 41 10C41 6.6863 43.6863 4 47 4C50.3137 4 53 6.6863 53 10C52.9965 13.3125 50.3125 15.9965 47 16ZM47 6C44.791 6 43 7.791 43 10C43 12.209 44.791 14 47 14C49.209 14 51 12.209 51 10C51 7.791 49.209 6 47 6ZM13 16C9.6863 16 7 13.3133 7 10C7 6.6863 9.6863 4 13 4C16.314 4 19 6.6863 19 10C18.9965 13.3125 16.3125 15.9965 13 16ZM13 6C10.791 6 9 7.791 9 10C9 12.209 10.791 14 13 14C15.209 14 17 12.209 17 10C17 7.791 15.209 6 13 6Z" fill="url(#paint0_linear_8_42)"/>
<path d="M56.0656 18.5657C54.5754 17.5412 52.8084 16.9951 51 17.0001H43C42.5135 17.0044 42.0282 17.0484 41.5488 17.1317C40.9088 16.1309 40.0764 15.2672 39.1 14.5907C38.9536 14.48 38.7996 14.3799 38.639 14.2911C37.2401 13.4441 35.6354 12.9975 34 13.0001H26C24.4955 12.9948 23.0142 13.371 21.6946 14.0935C20.375 14.816 19.26 15.8613 18.454 17.1317C17.9737 17.0484 17.4874 17.0044 17 17.0001H9C7.19274 16.9951 5.42681 17.5405 3.9371 18.5638C2.72467 19.3887 1.7322 20.4974 1.04602 21.7935C0.359847 23.0895 0.000758832 24.5336 0 26.0001V30.0001C0.0035 32.7306 1.5922 35.2103 4.0723 36.3541C4.98775 36.7852 5.98812 37.0059 7 37.0001H17V35.0001H8V24.0001H6V34.8997C5.62357 34.8241 5.25784 34.7026 4.911 34.538C4.04349 34.138 3.30848 33.4982 2.79269 32.6942C2.27691 31.8901 2.00186 30.9553 2 30.0001V26.0001C2.00121 24.8588 2.28115 23.7351 2.81549 22.7267C3.34982 21.7183 4.12238 20.8556 5.066 20.2138C6.22375 19.4193 7.59587 18.9959 9 19.0001H17C17.1762 19.0001 17.346 19.0189 17.518 19.0306C17.1796 19.9842 17.0045 20.9881 17 22.0001V32.0001C17.0035 34.7603 19.2402 36.9966 22 37.0001H25V21.0001H23V35.0001H22C20.3434 35.0001 19 33.6567 19 32.0001V22.0001C19 18.1337 22.1344 15.0001 26 15.0001H34C35.2866 15.0009 36.5479 15.357 37.645 16.0291C37.7464 16.0844 37.8439 16.1468 37.9367 16.2157C38.8737 16.8572 39.6427 17.7146 40.1789 18.7157C40.7178 19.7266 40.9998 20.8545 41 22.0001V32.0001C41 33.6567 39.6566 35.0001 38 35.0001H37V21.0001H35V37.0001H38C40.7602 36.9966 42.9965 34.7603 43 32.0001V22.0001C42.9954 20.9882 42.8205 19.9844 42.4828 19.0306C42.6551 19.0188 42.825 19.0001 43 19.0001H51C52.4052 18.9962 53.7783 19.4202 54.9367 20.2157C55.8795 20.8578 56.6513 21.7203 57.1851 22.7283C57.7189 23.7363 57.9987 24.8594 58 26.0001V30.0001C57.9982 30.9585 57.7215 31.8963 57.2025 32.7021C56.6835 33.5078 55.9442 34.1477 55.0723 34.5458C54.7308 34.7074 54.3706 34.8263 54 34.8998V24.0001H52V35.0001H43V37.0001H53C54.0057 37.0064 55.0002 36.7883 55.911 36.3618C58.3992 35.2216 59.996 32.7372 60 30.0001V26.0001C59.9992 24.5341 59.6404 23.0906 58.9547 21.795C58.2691 20.4993 57.2773 19.3907 56.0656 18.5657Z" fill="url(#paint1_linear_8_42)"/>
<path d="M26 35H34V37H26V35Z" fill="url(#paint2_linear_8_42)"/>
<defs>
<linearGradient id="paint0_linear_8_42" x1="30" y1="0" x2="30" y2="16" gradientUnits="userSpaceOnUse">
<stop stop-color="#29AAE3"/>
<stop offset="1" stop-color="#2E3192"/>
</linearGradient>
<linearGradient id="paint1_linear_8_42" x1="30" y1="13" x2="30" y2="37.0002" gradientUnits="userSpaceOnUse">
<stop stop-color="#29AAE3"/>
<stop offset="1" stop-color="#2E3192"/>
</linearGradient>
<linearGradient id="paint2_linear_8_42" x1="30" y1="35" x2="30" y2="37" gradientUnits="userSpaceOnUse">
<stop stop-color="#29AAE3"/>
<stop offset="1" stop-color="#2E3192"/>
</linearGradient>
</defs>
</svg>
