<svg width="18" height="22" viewBox="0 0 18 22" fill="none" xmlns="http://www.w3.org/2000/svg">
<path d="M3.54 3.07074C3.6 4.06914 3.75 5.0451 3.99 5.97619L2.79 7.32234C2.38 5.97619 2.12 4.55151 2.03 3.07074H3.54ZM13.4 16.5547C14.25 16.8239 15.12 16.9922 16 17.0595V18.731C14.68 18.63 13.41 18.3384 12.2 17.8896L13.4 16.5547ZM4.5 0.827148H1C0.45 0.827148 0 1.33196 0 1.94894C0 12.4826 7.61 21.0195 17 21.0195C17.55 21.0195 18 20.5147 18 19.8977V15.9826C18 15.3656 17.55 14.8608 17 14.8608C15.76 14.8608 14.55 14.6364 13.43 14.2214C13.33 14.1765 13.22 14.1653 13.12 14.1653C12.86 14.1653 12.61 14.2775 12.41 14.4906L10.21 16.9586C7.38 15.332 5.06 12.7406 3.62 9.56593L5.82 7.09798C6.1 6.78388 6.18 6.34638 6.07 5.95375C5.7 4.69734 5.5 3.35119 5.5 1.94894C5.5 1.33196 5.05 0.827148 4.5 0.827148Z" fill="#2E3192"/>
</svg>
