<svg width="25" height="26" viewBox="0 0 25 26" fill="none" xmlns="http://www.w3.org/2000/svg">
<path d="M5.04924 17.0352C7.49321 19.9567 10.4352 22.2569 13.7931 23.8845C15.0716 24.4903 16.7813 25.2092 18.6862 25.3324C18.8043 25.3375 18.9172 25.3426 19.0353 25.3426C20.3138 25.3426 21.3406 24.9011 22.1776 23.9923C22.1827 23.9872 22.193 23.9769 22.1981 23.9666C22.4959 23.6072 22.8348 23.2838 23.189 22.9398C23.4303 22.7087 23.6768 22.4674 23.913 22.2209C25.0066 21.0811 25.0066 19.6332 23.9027 18.5293L20.8169 15.4435C20.2932 14.8993 19.6668 14.6118 19.0096 14.6118C18.3524 14.6118 17.7209 14.8993 17.1818 15.4384L15.3437 17.2765C15.1742 17.179 14.9997 17.0917 14.8354 17.0095C14.63 16.9068 14.44 16.8093 14.2706 16.7015C12.5968 15.6387 11.077 14.2524 9.62398 12.4707C8.88976 11.5414 8.39686 10.761 8.05285 9.96515C8.53549 9.52873 8.98731 9.07177 9.42374 8.62508C9.57777 8.46591 9.73693 8.30674 9.8961 8.14758C10.4506 7.59306 10.7484 6.95127 10.7484 6.2992C10.7484 5.64713 10.4557 5.00533 9.8961 4.45082L8.36605 2.92077C8.18635 2.74107 8.01691 2.5665 7.84234 2.38679C7.50347 2.03766 7.1492 1.67825 6.80006 1.35478C6.27122 0.836209 5.64996 0.564087 4.99276 0.564087C4.34069 0.564087 3.7143 0.83621 3.16492 1.35992L1.24465 3.28018C0.546378 3.97846 0.15103 4.82563 0.06888 5.8063C-0.0286734 7.03342 0.19724 8.33755 0.78256 9.91381C1.68108 12.3526 3.03656 14.6169 5.04924 17.0352ZM1.32167 5.91412C1.38328 5.23125 1.64514 4.66133 2.13804 4.16843L4.04803 2.25844C4.34583 1.97091 4.67443 1.82201 4.99276 1.82201C5.30596 1.82201 5.62429 1.97091 5.91695 2.2687C6.26095 2.58704 6.58442 2.92077 6.93356 3.27504C7.10813 3.45475 7.28783 3.63445 7.46753 3.81929L8.99758 5.34934C9.31591 5.66767 9.48021 5.99114 9.48021 6.30947C9.48021 6.6278 9.31591 6.95127 8.99758 7.2696C8.83842 7.42876 8.67925 7.59306 8.52008 7.75223C8.04258 8.23486 7.59589 8.69182 7.10299 9.12825L7.07732 9.15392C6.65117 9.58007 6.71791 9.98569 6.8206 10.2938C6.82574 10.3092 6.83087 10.3194 6.836 10.3348C7.23135 11.2847 7.78073 12.1883 8.63817 13.2666C10.1785 15.1663 11.801 16.6399 13.5877 17.7746C13.8085 17.9183 14.0447 18.0313 14.2655 18.1442C14.4708 18.2469 14.6608 18.3445 14.8302 18.4523C14.8508 18.4626 14.8662 18.4728 14.8867 18.4831C15.0562 18.5704 15.2205 18.6115 15.3848 18.6115C15.7955 18.6115 16.0625 18.3496 16.1498 18.2623L18.07 16.3421C18.3678 16.0443 18.6913 15.8851 19.0096 15.8851C19.3999 15.8851 19.7182 16.1264 19.9184 16.3421L23.0145 19.433C23.6306 20.0491 23.6255 20.7166 22.9991 21.3686C22.7834 21.5997 22.5575 21.8205 22.3162 22.0515C21.9568 22.4006 21.582 22.76 21.2431 23.1657C20.6526 23.8023 19.9492 24.1001 19.0404 24.1001C18.9532 24.1001 18.8607 24.095 18.7735 24.0899C17.0894 23.982 15.5234 23.3248 14.3476 22.7652C11.154 21.2197 8.35065 19.0273 6.02477 16.2445C4.10964 13.9392 2.82091 11.793 1.9686 9.49279C1.43976 8.08083 1.23952 6.94613 1.32167 5.91412Z" fill="#2E3192"/>
</svg>
