<svg width="25" height="26" viewBox="0 0 25 26" fill="none" xmlns="http://www.w3.org/2000/svg">
<g clip-path="url(#clip0_5_1359)">
<path d="M12.3893 4.72386C12.6855 4.72386 12.9279 4.48146 12.9279 4.18519V3.91586C12.9279 3.6196 12.6855 3.3772 12.3893 3.3772C12.093 3.3772 11.8506 3.6196 11.8506 3.91586V4.18519C11.8506 4.48146 12.093 4.72386 12.3893 4.72386ZM12.3893 21.4225C12.093 21.4225 11.8506 21.6649 11.8506 21.9611V22.2304C11.8506 22.5267 12.093 22.7691 12.3893 22.7691C12.6855 22.7691 12.9279 22.5267 12.9279 22.2304V21.9611C12.9279 21.6649 12.6855 21.4225 12.3893 21.4225ZM3.50129 12.5345H3.23196C2.9357 12.5345 2.6933 12.7769 2.6933 13.0732C2.6933 13.3694 2.9357 13.6118 3.23196 13.6118H3.50129C3.79756 13.6118 4.03996 13.3694 4.03996 13.0732C4.03996 12.7769 3.79756 12.5345 3.50129 12.5345ZM21.5466 12.5345H21.2772C20.981 12.5345 20.7386 12.7769 20.7386 13.0732C20.7386 13.3694 20.981 13.6118 21.2772 13.6118H21.5466C21.8428 13.6118 22.0852 13.3694 22.0852 13.0732C22.0852 12.7769 21.8428 12.5345 21.5466 12.5345ZM6.30235 6.23212C6.08688 6.01665 5.76369 6.01665 5.54822 6.23212C5.33275 6.44758 5.33275 6.77078 5.54822 6.98625L5.73675 7.17478C5.84448 7.28251 5.97915 7.33638 6.11382 7.33638C6.24848 7.33638 6.38315 7.28251 6.49088 7.17478C6.70635 6.95932 6.70635 6.63612 6.49088 6.42065L6.30235 6.23212ZM5.73675 18.9715L5.54822 19.1601C5.33275 19.3755 5.33275 19.6987 5.54822 19.9142C5.65595 20.0219 5.79062 20.0758 5.92528 20.0758C6.05995 20.0758 6.19462 20.0219 6.30235 19.9142L6.49088 19.7257C6.70635 19.5102 6.70635 19.187 6.49088 18.9715C6.27542 18.7561 5.95222 18.7561 5.73675 18.9715ZM18.4762 6.23212L18.2876 6.42065C18.0722 6.63612 18.0722 6.95932 18.2876 7.17478C18.3954 7.28251 18.53 7.33638 18.6647 7.33638C18.7994 7.33638 18.934 7.28251 19.0418 7.17478L19.2303 6.98625C19.4458 6.77078 19.4458 6.44758 19.2303 6.23212C19.0148 6.01665 18.6916 6.01665 18.4762 6.23212ZM12.9279 12.8577V7.95584C12.9279 7.65958 12.6855 7.41718 12.3893 7.41718C12.093 7.41718 11.8506 7.65958 11.8506 7.95584V13.0732C11.8506 13.2078 11.9045 13.3425 12.0122 13.4502L17.9106 19.3486C18.0183 19.4563 18.153 19.5102 18.2876 19.5102C18.4223 19.5102 18.557 19.4563 18.6647 19.3486C18.8802 19.1331 18.8802 18.8099 18.6647 18.5945L12.9279 12.8577Z" fill="#2E3192"/>
<path d="M12.3893 0.683899C5.54824 0.683899 0 6.23214 0 13.0732C0 19.9142 5.54824 25.4625 12.3893 25.4625C19.2303 25.4625 24.7786 19.9142 24.7786 13.0732C24.7786 6.23214 19.2303 0.683899 12.3893 0.683899ZM12.3893 24.3851C6.14077 24.3851 1.07733 19.3217 1.07733 13.0732C1.07733 6.82467 6.14077 1.76123 12.3893 1.76123C18.6378 1.76123 23.7012 6.82467 23.7012 13.0732C23.7012 19.3217 18.6378 24.3851 12.3893 24.3851Z" fill="#2E3192"/>
</g>
<defs>
<clipPath id="clip0_5_1359">
<rect width="24.7786" height="24.7786" fill="white" transform="translate(0 0.683899)"/>
</clipPath>
</defs>
</svg>
