<svg width="88" height="134" viewBox="0 0 88 134" fill="none" xmlns="http://www.w3.org/2000/svg">
<g opacity="0.5">
<path d="M3.69657 129.854L2.12833 131.423L0.56008 129.854C0.410723 129.705 0.261374 129.705 0.112017 129.854C-0.0373393 130.004 -0.0373393 130.153 0.112017 130.302L1.68025 131.871L0.112017 133.439C-0.0373391 133.588 -0.0373391 133.738 0.112017 133.887C0.261374 134.036 0.410723 134.036 0.56008 133.887L2.12833 132.319L3.69657 133.887C3.84593 134.036 3.99528 134.036 4.14464 133.887C4.29399 133.738 4.29399 133.588 4.14464 133.439L2.5764 131.871L4.14464 130.302C4.29399 130.153 4.29399 130.004 4.14464 129.854C4.06996 129.705 3.84593 129.705 3.69657 129.854Z" fill="#6B6E75"/>
<path d="M3.69657 116.858L2.12833 118.426L0.56008 116.858C0.410723 116.708 0.261374 116.708 0.112017 116.858C-0.0373393 117.007 -0.0373393 117.157 0.112017 117.306L1.68025 118.874L0.112017 120.442C-0.0373391 120.592 -0.0373391 120.741 0.112017 120.89C0.261374 121.04 0.410723 121.04 0.56008 120.89L2.12833 119.322L3.69657 120.89C3.84593 121.04 3.99528 121.04 4.14464 120.89C4.29399 120.741 4.29399 120.592 4.14464 120.442L2.5764 118.874L4.14464 117.306C4.29399 117.157 4.29399 117.007 4.14464 116.858C4.06996 116.708 3.84593 116.708 3.69657 116.858Z" fill="#6B6E75"/>
<path d="M3.69657 103.936L2.12833 105.504L0.56008 103.936C0.410723 103.787 0.261374 103.787 0.112017 103.936C-0.0373393 104.085 -0.0373393 104.235 0.112017 104.384L1.68025 105.952L0.112017 107.52C-0.0373391 107.67 -0.0373391 107.819 0.112017 107.969C0.261374 108.118 0.410723 108.118 0.56008 107.969L2.12833 106.4L3.69657 107.969C3.84593 108.118 3.99528 108.118 4.14464 107.969C4.29399 107.819 4.29399 107.67 4.14464 107.52L2.5764 105.952L4.14464 104.384C4.29399 104.235 4.29399 104.085 4.14464 103.936C4.06996 103.787 3.84593 103.787 3.69657 103.936Z" fill="#6B6E75"/>
<path d="M3.69657 90.9389L2.12833 92.5071L0.56008 90.9389C0.410723 90.7895 0.261374 90.7895 0.112017 90.9389C-0.0373393 91.0882 -0.0373393 91.2376 0.112017 91.3869L1.68025 92.9552L0.112017 94.5234C-0.0373391 94.6728 -0.0373391 94.8221 0.112017 94.9715C0.261374 95.1208 0.410723 95.1208 0.56008 94.9715L2.12833 93.4032L3.69657 94.9715C3.84593 95.1208 3.99528 95.1208 4.14464 94.9715C4.29399 94.8221 4.29399 94.6728 4.14464 94.5234L2.5764 92.9552L4.14464 91.3869C4.29399 91.2376 4.29399 91.0882 4.14464 90.9389C4.06996 90.7895 3.84593 90.7895 3.69657 90.9389Z" fill="#6B6E75"/>
<path d="M3.69657 77.9423L2.12833 79.5105L0.56008 77.9423C0.410723 77.7929 0.261374 77.7929 0.112017 77.9423C-0.0373393 78.0916 -0.0373393 78.241 0.112017 78.3903L1.68025 79.9586L0.112017 81.5268C-0.0373391 81.6762 -0.0373391 81.8255 0.112017 81.9749C0.261374 82.1243 0.410723 82.1243 0.56008 81.9749L2.12833 80.4066L3.69657 81.9749C3.84593 82.1243 3.99528 82.1243 4.14464 81.9749C4.29399 81.8255 4.29399 81.6762 4.14464 81.5268L2.5764 79.9586L4.14464 78.3903C4.29399 78.241 4.29399 78.0916 4.14464 77.9423C4.06996 77.7929 3.84593 77.7929 3.69657 77.9423Z" fill="#6B6E75"/>
<path d="M3.69657 65.0204L2.12833 66.5886L0.56008 65.0204C0.410723 64.871 0.261374 64.871 0.112017 65.0204C-0.0373393 65.1698 -0.0373393 65.3191 0.112017 65.4685L1.68025 67.0367L0.112017 68.605C-0.0373391 68.7543 -0.0373391 68.9037 0.112017 69.053C0.261374 69.2024 0.410723 69.2024 0.56008 69.053L2.12833 67.4848L3.69657 69.053C3.84593 69.2024 3.99528 69.2024 4.14464 69.053C4.29399 68.9037 4.29399 68.7543 4.14464 68.605L2.5764 67.0367L4.14464 65.4685C4.29399 65.3191 4.29399 65.1698 4.14464 65.0204C4.06996 64.871 3.84593 64.871 3.69657 65.0204Z" fill="#6B6E75"/>
<path d="M3.69657 52.0238L2.12833 53.5921L0.56008 52.0238C0.410723 51.8745 0.261374 51.8745 0.112017 52.0238C-0.0373393 52.1732 -0.0373393 52.3225 0.112017 52.4719L1.68025 54.0401L0.112017 55.6084C-0.0373391 55.7577 -0.0373391 55.9071 0.112017 56.0564C0.261374 56.2058 0.410723 56.2058 0.56008 56.0564L2.12833 54.4882L3.69657 56.0564C3.84593 56.2058 3.99528 56.2058 4.14464 56.0564C4.29399 55.9071 4.29399 55.7577 4.14464 55.6084L2.5764 54.0401L4.14464 52.4719C4.29399 52.3225 4.29399 52.1732 4.14464 52.0238C4.06996 51.8745 3.84593 51.8745 3.69657 52.0238Z" fill="#6B6E75"/>
<path d="M3.69657 39.0272L2.12833 40.5955L0.56008 39.0272C0.410723 38.8779 0.261374 38.8779 0.112017 39.0272C-0.0373393 39.1766 -0.0373393 39.326 0.112017 39.4753L1.68025 41.0436L0.112017 42.6118C-0.0373391 42.7611 -0.0373391 42.9105 0.112017 43.0599C0.261374 43.2092 0.410723 43.2092 0.56008 43.0599L2.12833 41.4916L3.69657 43.0599C3.84593 43.2092 3.99528 43.2092 4.14464 43.0599C4.29399 42.9105 4.29399 42.7611 4.14464 42.6118L2.5764 41.0436L4.14464 39.4753C4.29399 39.326 4.29399 39.1766 4.14464 39.0272C4.06996 38.8779 3.84593 38.8779 3.69657 39.0272Z" fill="#6B6E75"/>
<path d="M3.69657 26.1054L2.12833 27.6736L0.56008 26.1054C0.410723 25.956 0.261374 25.956 0.112017 26.1054C-0.0373393 26.2547 -0.0373393 26.4041 0.112017 26.5534L1.68025 28.1217L0.112017 29.6899C-0.0373391 29.8393 -0.0373391 29.9886 0.112017 30.138C0.261374 30.2873 0.410723 30.2873 0.56008 30.138L2.12833 28.5697L3.69657 30.138C3.84593 30.2873 3.99528 30.2873 4.14464 30.138C4.29399 29.9886 4.29399 29.8393 4.14464 29.6899L2.5764 28.1217L4.14464 26.5534C4.29399 26.4041 4.29399 26.2547 4.14464 26.1054C4.06996 25.956 3.84593 25.956 3.69657 26.1054Z" fill="#6B6E75"/>
<path d="M3.69657 13.1083L2.12833 14.6765L0.56008 13.1083C0.410723 12.9589 0.261374 12.9589 0.112017 13.1083C-0.0373393 13.2576 -0.0373393 13.407 0.112017 13.5563L1.68025 15.1246L0.112017 16.6928C-0.0373391 16.8422 -0.0373391 16.9916 0.112017 17.1409C0.261374 17.2903 0.410723 17.2903 0.56008 17.1409L2.12833 15.5727L3.69657 17.1409C3.84593 17.2903 3.99528 17.2903 4.14464 17.1409C4.29399 16.9916 4.29399 16.8422 4.14464 16.6928L2.5764 15.1246L4.14464 13.5563C4.29399 13.407 4.29399 13.2576 4.14464 13.1083C4.06996 12.9589 3.84593 12.9589 3.69657 13.1083Z" fill="#6B6E75"/>
<path d="M3.69657 0.11171L2.12833 1.67996L0.56008 0.11171C0.410723 -0.0376463 0.261374 -0.0376463 0.112017 0.11171C-0.0373393 0.261066 -0.0373393 0.410428 0.112017 0.559784L1.68025 2.12803L0.112017 3.69628C-0.0373391 3.84564 -0.0373391 3.99497 0.112017 4.14433C0.261374 4.29369 0.410723 4.29369 0.56008 4.14433L2.12833 2.57611L3.69657 4.14433C3.84593 4.29369 3.99528 4.29369 4.14464 4.14433C4.29399 3.99497 4.29399 3.84564 4.14464 3.69628L2.5764 2.12803L4.14464 0.559784C4.29399 0.410427 4.29399 0.261066 4.14464 0.11171C3.99528 -0.0376465 3.84593 -0.0376465 3.69657 0.11171Z" fill="#6B6E75"/>
<path d="M24.3865 129.854L22.8183 131.423L21.25 129.854C21.1007 129.705 20.9513 129.705 20.802 129.854C20.6526 130.004 20.6526 130.153 20.802 130.302L22.3702 131.871L20.802 133.439C20.6526 133.588 20.6526 133.738 20.802 133.887C20.9513 134.036 21.1007 134.036 21.25 133.887L22.8183 132.319L24.3865 133.887C24.5359 134.036 24.6852 134.036 24.8346 133.887C24.9839 133.738 24.9839 133.588 24.8346 133.439L23.2663 131.871L24.8346 130.302C24.9839 130.153 24.9839 130.004 24.8346 129.854C24.6852 129.705 24.4612 129.705 24.3865 129.854Z" fill="#6B6E75"/>
<path d="M24.3865 116.858L22.8183 118.426L21.25 116.858C21.1007 116.708 20.9513 116.708 20.802 116.858C20.6526 117.007 20.6526 117.157 20.802 117.306L22.3702 118.874L20.802 120.442C20.6526 120.592 20.6526 120.741 20.802 120.89C20.9513 121.04 21.1007 121.04 21.25 120.89L22.8183 119.322L24.3865 120.89C24.5359 121.04 24.6852 121.04 24.8346 120.89C24.9839 120.741 24.9839 120.592 24.8346 120.442L23.2663 118.874L24.8346 117.306C24.9839 117.157 24.9839 117.007 24.8346 116.858C24.6852 116.708 24.4612 116.708 24.3865 116.858Z" fill="#6B6E75"/>
<path d="M24.3865 103.936L22.8183 105.504L21.25 103.936C21.1007 103.787 20.9513 103.787 20.802 103.936C20.6526 104.085 20.6526 104.235 20.802 104.384L22.3702 105.952L20.802 107.52C20.6526 107.67 20.6526 107.819 20.802 107.969C20.9513 108.118 21.1007 108.118 21.25 107.969L22.8183 106.4L24.3865 107.969C24.5359 108.118 24.6852 108.118 24.8346 107.969C24.9839 107.819 24.9839 107.67 24.8346 107.52L23.2663 105.952L24.8346 104.384C24.9839 104.235 24.9839 104.085 24.8346 103.936C24.6852 103.787 24.4612 103.787 24.3865 103.936Z" fill="#6B6E75"/>
<path d="M24.3865 90.9389L22.8183 92.5071L21.25 90.9389C21.1007 90.7895 20.9513 90.7895 20.802 90.9389C20.6526 91.0882 20.6526 91.2376 20.802 91.3869L22.3702 92.9552L20.802 94.5234C20.6526 94.6728 20.6526 94.8221 20.802 94.9715C20.9513 95.1208 21.1007 95.1208 21.25 94.9715L22.8183 93.4032L24.3865 94.9715C24.5359 95.1208 24.6852 95.1208 24.8346 94.9715C24.9839 94.8221 24.9839 94.6728 24.8346 94.5234L23.2663 92.9552L24.8346 91.3869C24.9839 91.2376 24.9839 91.0882 24.8346 90.9389C24.6852 90.7895 24.4612 90.7895 24.3865 90.9389Z" fill="#6B6E75"/>
<path d="M24.3865 77.9423L22.8183 79.5105L21.25 77.9423C21.1007 77.7929 20.9513 77.7929 20.802 77.9423C20.6526 78.0916 20.6526 78.241 20.802 78.3903L22.3702 79.9586L20.802 81.5268C20.6526 81.6762 20.6526 81.8255 20.802 81.9749C20.9513 82.1243 21.1007 82.1243 21.25 81.9749L22.8183 80.4066L24.3865 81.9749C24.5359 82.1243 24.6852 82.1243 24.8346 81.9749C24.9839 81.8255 24.9839 81.6762 24.8346 81.5268L23.2663 79.9586L24.8346 78.3903C24.9839 78.241 24.9839 78.0916 24.8346 77.9423C24.6852 77.7929 24.4612 77.7929 24.3865 77.9423Z" fill="#6B6E75"/>
<path d="M24.3865 65.0204L22.8183 66.5886L21.25 65.0204C21.1007 64.871 20.9513 64.871 20.802 65.0204C20.6526 65.1698 20.6526 65.3191 20.802 65.4685L22.3702 67.0367L20.802 68.605C20.6526 68.7543 20.6526 68.9037 20.802 69.053C20.9513 69.2024 21.1007 69.2024 21.25 69.053L22.8183 67.4848L24.3865 69.053C24.5359 69.2024 24.6852 69.2024 24.8346 69.053C24.9839 68.9037 24.9839 68.7543 24.8346 68.605L23.2663 67.0367L24.8346 65.4685C24.9839 65.3191 24.9839 65.1698 24.8346 65.0204C24.6852 64.871 24.4612 64.871 24.3865 65.0204Z" fill="#6B6E75"/>
<path d="M24.3865 52.0238L22.8183 53.5921L21.25 52.0238C21.1007 51.8745 20.9513 51.8745 20.802 52.0238C20.6526 52.1732 20.6526 52.3225 20.802 52.4719L22.3702 54.0401L20.802 55.6084C20.6526 55.7577 20.6526 55.9071 20.802 56.0564C20.9513 56.2058 21.1007 56.2058 21.25 56.0564L22.8183 54.4882L24.3865 56.0564C24.5359 56.2058 24.6852 56.2058 24.8346 56.0564C24.9839 55.9071 24.9839 55.7577 24.8346 55.6084L23.2663 54.0401L24.8346 52.4719C24.9839 52.3225 24.9839 52.1732 24.8346 52.0238C24.6852 51.8745 24.4612 51.8745 24.3865 52.0238Z" fill="#6B6E75"/>
<path d="M24.3865 39.0272L22.8183 40.5955L21.25 39.0272C21.1007 38.8779 20.9513 38.8779 20.802 39.0272C20.6526 39.1766 20.6526 39.326 20.802 39.4753L22.3702 41.0436L20.802 42.6118C20.6526 42.7611 20.6526 42.9105 20.802 43.0599C20.9513 43.2092 21.1007 43.2092 21.25 43.0599L22.8183 41.4916L24.3865 43.0599C24.5359 43.2092 24.6852 43.2092 24.8346 43.0599C24.9839 42.9105 24.9839 42.7611 24.8346 42.6118L23.2663 41.0436L24.8346 39.4753C24.9839 39.326 24.9839 39.1766 24.8346 39.0272C24.6852 38.8779 24.4612 38.8779 24.3865 39.0272Z" fill="#6B6E75"/>
<path d="M24.3865 26.1054L22.8183 27.6736L21.25 26.1054C21.1007 25.956 20.9513 25.956 20.802 26.1054C20.6526 26.2547 20.6526 26.4041 20.802 26.5534L22.3702 28.1217L20.802 29.6899C20.6526 29.8393 20.6526 29.9886 20.802 30.138C20.9513 30.2873 21.1007 30.2873 21.25 30.138L22.8183 28.5697L24.3865 30.138C24.5359 30.2873 24.6852 30.2873 24.8346 30.138C24.9839 29.9886 24.9839 29.8393 24.8346 29.6899L23.2663 28.1217L24.8346 26.5534C24.9839 26.4041 24.9839 26.2547 24.8346 26.1054C24.6852 25.956 24.4612 25.956 24.3865 26.1054Z" fill="#6B6E75"/>
<path d="M24.3865 13.1083L22.8183 14.6765L21.25 13.1083C21.1007 12.9589 20.9513 12.9589 20.802 13.1083C20.6526 13.2576 20.6526 13.407 20.802 13.5563L22.3702 15.1246L20.802 16.6928C20.6526 16.8422 20.6526 16.9916 20.802 17.1409C20.9513 17.2903 21.1007 17.2903 21.25 17.1409L22.8183 15.5727L24.3865 17.1409C24.5359 17.2903 24.6852 17.2903 24.8346 17.1409C24.9839 16.9916 24.9839 16.8422 24.8346 16.6928L23.2663 15.1246L24.8346 13.5563C24.9839 13.407 24.9839 13.2576 24.8346 13.1083C24.6852 12.9589 24.4612 12.9589 24.3865 13.1083Z" fill="#6B6E75"/>
<path d="M24.3865 0.11171L22.8183 1.67996L21.25 0.11171C21.1007 -0.0376463 20.9513 -0.0376463 20.802 0.11171C20.6526 0.261066 20.6526 0.410428 20.802 0.559784L22.3702 2.12803L20.802 3.69628C20.6526 3.84564 20.6526 3.99497 20.802 4.14433C20.9513 4.29369 21.1007 4.29369 21.25 4.14433L22.8183 2.57611L24.3865 4.14433C24.5359 4.29369 24.6852 4.29369 24.8346 4.14433C24.9839 3.99497 24.9839 3.84564 24.8346 3.69628L23.2663 2.12803L24.8346 0.559784C24.9839 0.410427 24.9839 0.261066 24.8346 0.11171C24.6852 -0.0376465 24.4612 -0.0376465 24.3865 0.11171Z" fill="#6B6E75"/>
<path d="M45.0764 129.854L43.5082 131.423L41.94 129.854C41.7906 129.705 41.6413 129.705 41.4919 129.854C41.3425 130.004 41.3425 130.153 41.4919 130.302L43.0601 131.871L41.4919 133.439C41.3425 133.588 41.3425 133.738 41.4919 133.887C41.6413 134.036 41.7906 134.036 41.94 133.887L43.5082 132.319L45.0764 133.887C45.2258 134.036 45.3752 134.036 45.5245 133.887C45.6739 133.738 45.6739 133.588 45.5245 133.439L43.9563 131.871L45.5245 130.302C45.6739 130.153 45.6739 130.004 45.5245 129.854C45.4498 129.705 45.2258 129.705 45.0764 129.854Z" fill="#6B6E75"/>
<path d="M45.0764 116.858L43.5082 118.426L41.94 116.858C41.7906 116.708 41.6413 116.708 41.4919 116.858C41.3425 117.007 41.3425 117.157 41.4919 117.306L43.0601 118.874L41.4919 120.442C41.3425 120.592 41.3425 120.741 41.4919 120.89C41.6413 121.04 41.7906 121.04 41.94 120.89L43.5082 119.322L45.0764 120.89C45.2258 121.04 45.3752 121.04 45.5245 120.89C45.6739 120.741 45.6739 120.592 45.5245 120.442L43.9563 118.874L45.5245 117.306C45.6739 117.157 45.6739 117.007 45.5245 116.858C45.4498 116.708 45.2258 116.708 45.0764 116.858Z" fill="#6B6E75"/>
<path d="M45.0764 103.936L43.5082 105.504L41.94 103.936C41.7906 103.787 41.6413 103.787 41.4919 103.936C41.3425 104.085 41.3425 104.235 41.4919 104.384L43.0601 105.952L41.4919 107.52C41.3425 107.67 41.3425 107.819 41.4919 107.969C41.6413 108.118 41.7906 108.118 41.94 107.969L43.5082 106.4L45.0764 107.969C45.2258 108.118 45.3752 108.118 45.5245 107.969C45.6739 107.819 45.6739 107.67 45.5245 107.52L43.9563 105.952L45.5245 104.384C45.6739 104.235 45.6739 104.085 45.5245 103.936C45.4498 103.787 45.2258 103.787 45.0764 103.936Z" fill="#6B6E75"/>
<path d="M45.0764 90.9389L43.5082 92.5071L41.94 90.9389C41.7906 90.7895 41.6413 90.7895 41.4919 90.9389C41.3425 91.0882 41.3425 91.2376 41.4919 91.3869L43.0601 92.9552L41.4919 94.5234C41.3425 94.6728 41.3425 94.8221 41.4919 94.9715C41.6413 95.1208 41.7906 95.1208 41.94 94.9715L43.5082 93.4032L45.0764 94.9715C45.2258 95.1208 45.3752 95.1208 45.5245 94.9715C45.6739 94.8221 45.6739 94.6728 45.5245 94.5234L43.9563 92.9552L45.5245 91.3869C45.6739 91.2376 45.6739 91.0882 45.5245 90.9389C45.4498 90.7895 45.2258 90.7895 45.0764 90.9389Z" fill="#6B6E75"/>
<path d="M45.0764 77.9423L43.5082 79.5105L41.94 77.9423C41.7906 77.7929 41.6413 77.7929 41.4919 77.9423C41.3425 78.0917 41.3425 78.241 41.4919 78.3904L43.0601 79.9586L41.4919 81.6015C41.3425 81.7509 41.3425 81.9002 41.4919 82.0496C41.6413 82.199 41.7906 82.199 41.94 82.0496L43.5082 80.4814L45.0764 82.0496C45.2258 82.199 45.3752 82.199 45.5245 82.0496C45.6739 81.9002 45.6739 81.7509 45.5245 81.6015L43.9563 80.0333L45.5245 78.465C45.6739 78.3157 45.6739 78.1663 45.5245 78.017C45.4498 77.7929 45.2258 77.7929 45.0764 77.9423Z" fill="#6B6E75"/>
<path d="M45.0764 65.0204L43.5082 66.5886L41.94 65.0204C41.7906 64.871 41.6413 64.871 41.4919 65.0204C41.3425 65.1698 41.3425 65.3191 41.4919 65.4685L43.0601 67.0367L41.4919 68.605C41.3425 68.7543 41.3425 68.9037 41.4919 69.053C41.6413 69.2024 41.7906 69.2024 41.94 69.053L43.5082 67.4848L45.0764 69.053C45.2258 69.2024 45.3752 69.2024 45.5245 69.053C45.6739 68.9037 45.6739 68.7543 45.5245 68.605L43.9563 67.0367L45.5245 65.4685C45.6739 65.3191 45.6739 65.1698 45.5245 65.0204C45.4498 64.871 45.2258 64.871 45.0764 65.0204Z" fill="#6B6E75"/>
<path d="M45.0764 52.0238L43.5082 53.5921L41.94 52.0238C41.7906 51.8745 41.6413 51.8745 41.4919 52.0238C41.3425 52.1732 41.3425 52.3225 41.4919 52.4719L43.0601 54.0401L41.4919 55.6084C41.3425 55.7577 41.3425 55.9071 41.4919 56.0564C41.6413 56.2058 41.7906 56.2058 41.94 56.0564L43.5082 54.4882L45.0764 56.0564C45.2258 56.2058 45.3752 56.2058 45.5245 56.0564C45.6739 55.9071 45.6739 55.7577 45.5245 55.6084L43.9563 54.0401L45.5245 52.4719C45.6739 52.3225 45.6739 52.1732 45.5245 52.0238C45.4498 51.8745 45.2258 51.8745 45.0764 52.0238Z" fill="#6B6E75"/>
<path d="M45.0764 39.0272L43.5082 40.5955L41.94 39.0272C41.7906 38.8779 41.6413 38.8779 41.4919 39.0272C41.3425 39.1766 41.3425 39.326 41.4919 39.4753L43.0601 41.0436L41.4919 42.6118C41.3425 42.7611 41.3425 42.9105 41.4919 43.0599C41.6413 43.2092 41.7906 43.2092 41.94 43.0599L43.5082 41.4916L45.0764 43.0599C45.2258 43.2092 45.3752 43.2092 45.5245 43.0599C45.6739 42.9105 45.6739 42.7611 45.5245 42.6118L43.9563 41.0436L45.5245 39.4753C45.6739 39.326 45.6739 39.1766 45.5245 39.0272C45.4498 38.8779 45.2258 38.8779 45.0764 39.0272Z" fill="#6B6E75"/>
<path d="M45.0764 26.1054L43.5082 27.6736L41.94 26.1054C41.7906 25.956 41.6413 25.956 41.4919 26.1054C41.3425 26.2547 41.3425 26.4041 41.4919 26.5534L43.0601 28.1217L41.4919 29.6899C41.3425 29.8393 41.3425 29.9886 41.4919 30.138C41.6413 30.2873 41.7906 30.2873 41.94 30.138L43.5082 28.5697L45.0764 30.138C45.2258 30.2873 45.3752 30.2873 45.5245 30.138C45.6739 29.9886 45.6739 29.8393 45.5245 29.6899L43.9563 28.1217L45.5245 26.5534C45.6739 26.4041 45.6739 26.2547 45.5245 26.1054C45.4498 25.956 45.2258 25.956 45.0764 26.1054Z" fill="#6B6E75"/>
<path d="M45.0764 13.1083L43.5082 14.6765L41.94 13.1083C41.7906 12.9589 41.6413 12.9589 41.4919 13.1083C41.3425 13.2576 41.3425 13.407 41.4919 13.5563L43.0601 15.1246L41.4919 16.6928C41.3425 16.8422 41.3425 16.9916 41.4919 17.1409C41.6413 17.2903 41.7906 17.2903 41.94 17.1409L43.5082 15.5727L45.0764 17.1409C45.2258 17.2903 45.3752 17.2903 45.5245 17.1409C45.6739 16.9916 45.6739 16.8422 45.5245 16.6928L43.9563 15.1246L45.5245 13.5563C45.6739 13.407 45.6739 13.2576 45.5245 13.1083C45.4498 12.9589 45.2258 12.9589 45.0764 13.1083Z" fill="#6B6E75"/>
<path d="M45.0764 0.11171L43.5082 1.67996L41.94 0.11171C41.7906 -0.0376463 41.6413 -0.0376463 41.4919 0.11171C41.3425 0.261066 41.3425 0.410428 41.4919 0.559784L43.0601 2.12803L41.4919 3.69628C41.3425 3.84564 41.3425 3.99497 41.4919 4.14433C41.6413 4.29369 41.7906 4.29369 41.94 4.14433L43.5082 2.57611L45.0764 4.14433C45.2258 4.29369 45.3752 4.29369 45.5245 4.14433C45.6739 3.99497 45.6739 3.84564 45.5245 3.69628L43.9563 2.12803L45.5245 0.559784C45.6739 0.410427 45.6739 0.261066 45.5245 0.11171C45.3752 -0.0376465 45.2258 -0.0376465 45.0764 0.11171Z" fill="#6B6E75"/>
<path d="M65.7669 129.854L64.1987 131.423L62.6304 129.854C62.481 129.705 62.3317 129.705 62.1823 129.854C62.033 130.004 62.033 130.153 62.1823 130.302L63.7506 131.871L62.1823 133.439C62.033 133.588 62.033 133.738 62.1823 133.887C62.3317 134.036 62.481 134.036 62.6304 133.887L64.1987 132.319L65.7669 133.887C65.9163 134.036 66.0656 134.036 66.215 133.887C66.3643 133.738 66.3643 133.588 66.215 133.439L64.6467 131.871L66.2149 130.302C66.3643 130.153 66.3643 130.004 66.2149 129.854C66.0656 129.705 65.8416 129.705 65.7669 129.854Z" fill="#6B6E75"/>
<path d="M65.7669 116.858L64.1987 118.426L62.6304 116.858C62.481 116.708 62.3317 116.708 62.1823 116.858C62.033 117.007 62.033 117.157 62.1823 117.306L63.7506 118.874L62.1823 120.442C62.033 120.592 62.033 120.741 62.1823 120.89C62.3317 121.04 62.481 121.04 62.6304 120.89L64.1987 119.322L65.7669 120.89C65.9163 121.04 66.0656 121.04 66.215 120.89C66.3643 120.741 66.3643 120.592 66.215 120.442L64.6467 118.874L66.2149 117.306C66.3643 117.157 66.3643 117.007 66.2149 116.858C66.0656 116.708 65.8416 116.708 65.7669 116.858Z" fill="#6B6E75"/>
<path d="M65.7669 103.936L64.1987 105.504L62.6304 103.936C62.481 103.787 62.3317 103.787 62.1823 103.936C62.033 104.085 62.033 104.235 62.1823 104.384L63.7506 105.952L62.1823 107.52C62.033 107.67 62.033 107.819 62.1823 107.969C62.3317 108.118 62.481 108.118 62.6304 107.969L64.1987 106.4L65.7669 107.969C65.9163 108.118 66.0656 108.118 66.215 107.969C66.3643 107.819 66.3643 107.67 66.215 107.52L64.6467 105.952L66.2149 104.384C66.3643 104.235 66.3643 104.085 66.2149 103.936C66.0656 103.787 65.8416 103.787 65.7669 103.936Z" fill="#6B6E75"/>
<path d="M65.7669 90.9389L64.1987 92.5071L62.6304 90.9389C62.481 90.7895 62.3317 90.7895 62.1823 90.9389C62.033 91.0882 62.033 91.2376 62.1823 91.3869L63.7506 92.9552L62.1823 94.5234C62.033 94.6728 62.033 94.8221 62.1823 94.9715C62.3317 95.1208 62.481 95.1208 62.6304 94.9715L64.1987 93.4032L65.7669 94.9715C65.9163 95.1208 66.0656 95.1208 66.215 94.9715C66.3643 94.8221 66.3643 94.6728 66.215 94.5234L64.6467 92.9552L66.2149 91.3869C66.3643 91.2376 66.3643 91.0882 66.2149 90.9389C66.0656 90.7895 65.8416 90.7895 65.7669 90.9389Z" fill="#6B6E75"/>
<path d="M65.7669 77.9423L64.1987 79.5105L62.6304 77.9423C62.481 77.7929 62.3317 77.7929 62.1823 77.9423C62.033 78.0916 62.033 78.241 62.1823 78.3903L63.7506 79.9586L62.1823 81.5268C62.033 81.6762 62.033 81.8255 62.1823 81.9749C62.3317 82.1243 62.481 82.1243 62.6304 81.9749L64.1987 80.4066L65.7669 81.9749C65.9163 82.1243 66.0656 82.1243 66.215 81.9749C66.3643 81.8255 66.3643 81.6762 66.215 81.5268L64.6467 79.9586L66.2149 78.3903C66.3643 78.241 66.3643 78.0916 66.2149 77.9423C66.0656 77.7929 65.8416 77.7929 65.7669 77.9423Z" fill="#6B6E75"/>
<path d="M65.7669 65.0204L64.1987 66.5886L62.6304 65.0204C62.481 64.871 62.3317 64.871 62.1823 65.0204C62.033 65.1698 62.033 65.3191 62.1823 65.4685L63.7506 67.0367L62.1823 68.605C62.033 68.7543 62.033 68.9037 62.1823 69.053C62.3317 69.2024 62.481 69.2024 62.6304 69.053L64.1987 67.4848L65.7669 69.053C65.9163 69.2024 66.0656 69.2024 66.215 69.053C66.3643 68.9037 66.3643 68.7543 66.215 68.605L64.6467 67.0367L66.2149 65.4685C66.3643 65.3191 66.3643 65.1698 66.2149 65.0204C66.0656 64.871 65.8416 64.871 65.7669 65.0204Z" fill="#6B6E75"/>
<path d="M65.7669 52.0238L64.1987 53.5921L62.6304 52.0238C62.481 51.8745 62.3317 51.8745 62.1823 52.0238C62.033 52.1732 62.033 52.3225 62.1823 52.4719L63.7506 54.0401L62.1823 55.6084C62.033 55.7577 62.033 55.9071 62.1823 56.0564C62.3317 56.2058 62.481 56.2058 62.6304 56.0564L64.1987 54.4882L65.7669 56.0564C65.9163 56.2058 66.0656 56.2058 66.215 56.0564C66.3643 55.9071 66.3643 55.7577 66.215 55.6084L64.6467 54.0401L66.2149 52.4719C66.3643 52.3225 66.3643 52.1732 66.2149 52.0238C66.0656 51.8745 65.8416 51.8745 65.7669 52.0238Z" fill="#6B6E75"/>
<path d="M65.7669 39.0272L64.1987 40.5955L62.6304 39.0272C62.481 38.8779 62.3317 38.8779 62.1823 39.0272C62.033 39.1766 62.033 39.326 62.1823 39.4753L63.7506 41.0436L62.1823 42.6118C62.033 42.7611 62.033 42.9105 62.1823 43.0599C62.3317 43.2092 62.481 43.2092 62.6304 43.0599L64.1987 41.4916L65.7669 43.0599C65.9163 43.2092 66.0656 43.2092 66.215 43.0599C66.3643 42.9105 66.3643 42.7611 66.215 42.6118L64.6467 41.0436L66.2149 39.4753C66.3643 39.326 66.3643 39.1766 66.2149 39.0272C66.0656 38.8779 65.8416 38.8779 65.7669 39.0272Z" fill="#6B6E75"/>
<path d="M65.7669 26.1054L64.1987 27.6736L62.6304 26.1054C62.481 25.956 62.3317 25.956 62.1823 26.1054C62.033 26.2547 62.033 26.4041 62.1823 26.5534L63.7506 28.1217L62.1823 29.6899C62.033 29.8393 62.033 29.9886 62.1823 30.138C62.3317 30.2873 62.481 30.2873 62.6304 30.138L64.1987 28.5697L65.7669 30.138C65.9163 30.2873 66.0656 30.2873 66.215 30.138C66.3643 29.9886 66.3643 29.8393 66.215 29.6899L64.6467 28.1217L66.2149 26.5534C66.3643 26.4041 66.3643 26.2547 66.2149 26.1054C66.0656 25.956 65.8416 25.956 65.7669 26.1054Z" fill="#6B6E75"/>
<path d="M65.7669 13.1083L64.1987 14.6765L62.6304 13.1083C62.481 12.9589 62.3317 12.9589 62.1823 13.1083C62.033 13.2576 62.033 13.407 62.1823 13.5563L63.7506 15.1246L62.1823 16.6928C62.033 16.8422 62.033 16.9916 62.1823 17.1409C62.3317 17.2903 62.481 17.2903 62.6304 17.1409L64.1987 15.5727L65.7669 17.1409C65.9163 17.2903 66.0656 17.2903 66.215 17.1409C66.3643 16.9916 66.3643 16.8422 66.215 16.6928L64.6467 15.1246L66.2149 13.5563C66.3643 13.407 66.3643 13.2576 66.2149 13.1083C66.0656 12.9589 65.8416 12.9589 65.7669 13.1083Z" fill="#6B6E75"/>
<path d="M65.7669 0.11171L64.1987 1.67996L62.6304 0.11171C62.481 -0.0376463 62.3317 -0.0376463 62.1823 0.11171C62.033 0.261066 62.033 0.410428 62.1823 0.559784L63.7506 2.12803L62.1823 3.69628C62.033 3.84564 62.033 3.99497 62.1823 4.14433C62.3317 4.29369 62.481 4.29369 62.6304 4.14433L64.1987 2.57611L65.7669 4.14433C65.9163 4.29369 66.0656 4.29369 66.215 4.14433C66.3643 3.99497 66.3643 3.84564 66.215 3.69628L64.6467 2.12803L66.2149 0.559784C66.3643 0.410427 66.3643 0.261066 66.2149 0.11171C66.0656 -0.0376465 65.8416 -0.0376465 65.7669 0.11171Z" fill="#6B6E75"/>
<path d="M86.4568 129.854L84.8886 131.423L83.3203 129.854C83.171 129.705 83.0216 129.705 82.8723 129.854C82.7229 130.004 82.7229 130.153 82.8723 130.302L84.4405 131.871L82.8723 133.439C82.7229 133.588 82.7229 133.738 82.8723 133.887C83.0216 134.036 83.171 134.036 83.3203 133.887L84.8886 132.319L86.4568 133.887C86.6062 134.036 86.7555 134.036 86.9049 133.887C87.0542 133.738 87.0542 133.588 86.9049 133.439L85.3366 131.871L86.9049 130.302C87.0542 130.153 87.0542 130.004 86.9049 129.854C86.7555 129.705 86.6062 129.705 86.4568 129.854Z" fill="#6B6E75"/>
<path d="M86.4568 116.858L84.8886 118.426L83.3203 116.858C83.171 116.708 83.0216 116.708 82.8723 116.858C82.7229 117.007 82.7229 117.157 82.8723 117.306L84.4405 118.874L82.8723 120.442C82.7229 120.592 82.7229 120.741 82.8723 120.89C83.0216 121.04 83.171 121.04 83.3203 120.89L84.8886 119.322L86.4568 120.89C86.6062 121.04 86.7555 121.04 86.9049 120.89C87.0542 120.741 87.0542 120.592 86.9049 120.442L85.3366 118.874L86.9049 117.306C87.0542 117.157 87.0542 117.007 86.9049 116.858C86.7555 116.708 86.6062 116.708 86.4568 116.858Z" fill="#6B6E75"/>
<path d="M86.4568 103.936L84.8886 105.504L83.3203 103.936C83.171 103.787 83.0216 103.787 82.8723 103.936C82.7229 104.085 82.7229 104.235 82.8723 104.384L84.4405 105.952L82.8723 107.52C82.7229 107.67 82.7229 107.819 82.8723 107.969C83.0216 108.118 83.171 108.118 83.3203 107.969L84.8886 106.4L86.4568 107.969C86.6062 108.118 86.7555 108.118 86.9049 107.969C87.0542 107.819 87.0542 107.67 86.9049 107.52L85.3366 105.952L86.9049 104.384C87.0542 104.235 87.0542 104.085 86.9049 103.936C86.7555 103.787 86.6062 103.787 86.4568 103.936Z" fill="#6B6E75"/>
<path d="M86.4568 90.9389L84.8886 92.5071L83.3203 90.9389C83.171 90.7895 83.0216 90.7895 82.8723 90.9389C82.7229 91.0882 82.7229 91.2376 82.8723 91.3869L84.4405 92.9552L82.8723 94.5234C82.7229 94.6728 82.7229 94.8221 82.8723 94.9715C83.0216 95.1208 83.171 95.1208 83.3203 94.9715L84.8886 93.4032L86.4568 94.9715C86.6062 95.1208 86.7555 95.1208 86.9049 94.9715C87.0542 94.8221 87.0542 94.6728 86.9049 94.5234L85.3366 92.9552L86.9049 91.3869C87.0542 91.2376 87.0542 91.0882 86.9049 90.9389C86.7555 90.7895 86.6062 90.7895 86.4568 90.9389Z" fill="#6B6E75"/>
<path d="M86.4568 77.9423L84.8886 79.5105L83.3203 77.9423C83.171 77.7929 83.0216 77.7929 82.8723 77.9423C82.7229 78.0916 82.7229 78.241 82.8723 78.3903L84.4405 79.9586L82.8723 81.5268C82.7229 81.6762 82.7229 81.8255 82.8723 81.9749C83.0216 82.1243 83.171 82.1243 83.3203 81.9749L84.8886 80.4066L86.4568 81.9749C86.6062 82.1243 86.7555 82.1243 86.9049 81.9749C87.0542 81.8255 87.0542 81.6762 86.9049 81.5268L85.3366 79.9586L86.9049 78.3903C87.0542 78.241 87.0542 78.0916 86.9049 77.9423C86.7555 77.7929 86.6062 77.7929 86.4568 77.9423Z" fill="#6B6E75"/>
<path d="M86.4568 65.0204L84.8886 66.5886L83.3203 65.0204C83.171 64.871 83.0216 64.871 82.8723 65.0204C82.7229 65.1698 82.7229 65.3191 82.8723 65.4685L84.4405 67.0367L82.8723 68.605C82.7229 68.7543 82.7229 68.9037 82.8723 69.053C83.0216 69.2024 83.171 69.2024 83.3203 69.053L84.8886 67.4848L86.4568 69.053C86.6062 69.2024 86.7555 69.2024 86.9049 69.053C87.0542 68.9037 87.0542 68.7543 86.9049 68.605L85.3366 67.0367L86.9049 65.4685C87.0542 65.3191 87.0542 65.1698 86.9049 65.0204C86.7555 64.871 86.6062 64.871 86.4568 65.0204Z" fill="#6B6E75"/>
<path d="M86.4568 52.0238L84.8886 53.5921L83.3203 52.0238C83.171 51.8745 83.0216 51.8745 82.8723 52.0238C82.7229 52.1732 82.7229 52.3225 82.8723 52.4719L84.4405 54.0401L82.8723 55.6084C82.7229 55.7577 82.7229 55.9071 82.8723 56.0564C83.0216 56.2058 83.171 56.2058 83.3203 56.0564L84.8886 54.4882L86.4568 56.0564C86.6062 56.2058 86.7555 56.2058 86.9049 56.0564C87.0542 55.9071 87.0542 55.7577 86.9049 55.6084L85.3366 54.0401L86.9049 52.4719C87.0542 52.3225 87.0542 52.1732 86.9049 52.0238C86.7555 51.8745 86.6062 51.8745 86.4568 52.0238Z" fill="#6B6E75"/>
<path d="M86.4568 39.0272L84.8886 40.5955L83.3203 39.0272C83.171 38.8779 83.0216 38.8779 82.8723 39.0272C82.7229 39.1766 82.7229 39.326 82.8723 39.4753L84.4405 41.0436L82.8723 42.6118C82.7229 42.7611 82.7229 42.9105 82.8723 43.0599C83.0216 43.2092 83.171 43.2092 83.3203 43.0599L84.8886 41.4916L86.4568 43.0599C86.6062 43.2092 86.7555 43.2092 86.9049 43.0599C87.0542 42.9105 87.0542 42.7611 86.9049 42.6118L85.3366 41.0436L86.9049 39.4753C87.0542 39.326 87.0542 39.1766 86.9049 39.0272C86.7555 38.8779 86.6062 38.8779 86.4568 39.0272Z" fill="#6B6E75"/>
<path d="M86.4568 26.1054L84.8886 27.6736L83.3203 26.1054C83.171 25.956 83.0216 25.956 82.8723 26.1054C82.7229 26.2547 82.7229 26.4041 82.8723 26.5534L84.4405 28.1217L82.8723 29.6899C82.7229 29.8393 82.7229 29.9886 82.8723 30.138C83.0216 30.2873 83.171 30.2873 83.3203 30.138L84.8886 28.5697L86.4568 30.138C86.6062 30.2873 86.7555 30.2873 86.9049 30.138C87.0542 29.9886 87.0542 29.8393 86.9049 29.6899L85.3366 28.1217L86.9049 26.5534C87.0542 26.4041 87.0542 26.2547 86.9049 26.1054C86.7555 25.956 86.6062 25.956 86.4568 26.1054Z" fill="#6B6E75"/>
<path d="M86.4568 13.1083L84.8886 14.6765L83.3203 13.1083C83.171 12.9589 83.0216 12.9589 82.8723 13.1083C82.7229 13.2576 82.7229 13.407 82.8723 13.5563L84.4405 15.1246L82.8723 16.6928C82.7229 16.8422 82.7229 16.9916 82.8723 17.1409C83.0216 17.2903 83.171 17.2903 83.3203 17.1409L84.8886 15.5727L86.4568 17.1409C86.6062 17.2903 86.7555 17.2903 86.9049 17.1409C87.0542 16.9916 87.0542 16.8422 86.9049 16.6928L85.3366 15.1246L86.9049 13.5563C87.0542 13.407 87.0542 13.2576 86.9049 13.1083C86.7555 12.9589 86.6062 12.9589 86.4568 13.1083Z" fill="#6B6E75"/>
<path d="M86.4568 0.11171L84.8886 1.67996L83.3203 0.11171C83.171 -0.0376463 83.0216 -0.0376463 82.8723 0.11171C82.7229 0.261066 82.7229 0.410428 82.8723 0.559784L84.4405 2.12803L82.8723 3.69628C82.7229 3.84564 82.7229 3.99497 82.8723 4.14433C83.0216 4.29369 83.171 4.29369 83.3203 4.14433L84.8886 2.57611L86.4568 4.14433C86.6062 4.29369 86.7555 4.29369 86.9049 4.14433C87.0542 3.99497 87.0542 3.84564 86.9049 3.69628L85.3366 2.12803L86.9049 0.559784C87.0542 0.410427 87.0542 0.261066 86.9049 0.11171C86.7555 -0.0376465 86.6062 -0.0376465 86.4568 0.11171Z" fill="#6B6E75"/>
</g>
</svg>
