<svg width="163" height="83" viewBox="0 0 163 83" fill="none" xmlns="http://www.w3.org/2000/svg">
<g opacity="0.5">
<path d="M159.403 81.6096C159.403 80.8757 159.99 80.2886 160.724 80.2886C161.458 80.2886 162.045 80.8757 162.045 81.6096C162.045 82.3435 161.458 82.9306 160.724 82.9306C159.99 82.9306 159.403 82.3435 159.403 81.6096Z" fill="#6B6E75"/>
<path d="M147.073 81.6096C147.073 80.8757 147.66 80.2886 148.394 80.2886C149.128 80.2886 149.715 80.8757 149.715 81.6096C149.715 82.3435 149.128 82.9306 148.394 82.9306C147.66 82.9306 147.073 82.3435 147.073 81.6096Z" fill="#6B6E75"/>
<path d="M134.891 81.6096C134.891 80.8757 135.478 80.2886 136.212 80.2886C136.946 80.2886 137.533 80.8757 137.533 81.6096C137.533 82.3435 136.946 82.9306 136.212 82.9306C135.478 82.9306 134.891 82.3435 134.891 81.6096Z" fill="#6B6E75"/>
<path d="M122.561 81.6096C122.561 80.8757 123.148 80.2886 123.882 80.2886C124.616 80.2886 125.203 80.8757 125.203 81.6096C125.203 82.3435 124.616 82.9306 123.882 82.9306C123.148 82.9306 122.561 82.3435 122.561 81.6096Z" fill="#6B6E75"/>
<path d="M110.378 81.6096C110.378 80.8757 110.966 80.2886 111.699 80.2886C112.433 80.2886 113.02 80.8757 113.02 81.6096C113.02 82.3435 112.433 82.9306 111.699 82.9306C110.966 82.9306 110.378 82.3435 110.378 81.6096Z" fill="#6B6E75"/>
<path d="M99.3699 82.9306C100.099 82.9306 100.691 82.3392 100.691 81.6096C100.691 80.88 100.099 80.2886 99.3699 80.2886C98.6403 80.2886 98.0488 80.88 98.0488 81.6096C98.0488 82.3392 98.6403 82.9306 99.3699 82.9306Z" fill="#6B6E75"/>
<path d="M85.8662 81.6096C85.8662 80.8757 86.4533 80.2886 87.1872 80.2886C87.9211 80.2886 88.5082 80.8757 88.5082 81.6096C88.5082 82.3435 87.9211 82.9306 87.1872 82.9306C86.4533 82.9306 85.8662 82.3435 85.8662 81.6096Z" fill="#6B6E75"/>
<path d="M73.5366 81.6096C73.5366 80.8757 74.1238 80.2886 74.8577 80.2886C75.5916 80.2886 76.1787 80.8757 76.1787 81.6096C76.1787 82.3435 75.5916 82.9306 74.8577 82.9306C74.1238 82.9306 73.5366 82.3435 73.5366 81.6096Z" fill="#6B6E75"/>
<path d="M61.3538 81.6096C61.3538 80.8757 61.9409 80.2886 62.6748 80.2886C63.4087 80.2886 63.9958 80.8757 63.9958 81.6096C63.9958 82.3435 63.4087 82.9306 62.6748 82.9306C61.9409 82.9306 61.3538 82.3435 61.3538 81.6096Z" fill="#6B6E75"/>
<path d="M49.0244 81.6096C49.0244 80.8757 49.6115 80.2886 50.3454 80.2886C51.0793 80.2886 51.6665 80.8757 51.6665 81.6096C51.6665 82.3435 51.0793 82.9306 50.3454 82.9306C49.6115 82.9306 49.0244 82.3435 49.0244 81.6096Z" fill="#6B6E75"/>
<path d="M36.8418 81.6096C36.8418 80.8757 37.4289 80.2886 38.1628 80.2886C38.8967 80.2886 39.4838 80.8757 39.4838 81.6096C39.4838 82.3435 38.8967 82.9306 38.1628 82.9306C37.4289 82.9306 36.8418 82.3435 36.8418 81.6096Z" fill="#6B6E75"/>
<path d="M24.5122 81.6096C24.5122 80.8757 25.0993 80.2886 25.8332 80.2886C26.5671 80.2886 27.1542 80.8757 27.1542 81.6096C27.1542 82.3435 26.5671 82.9306 25.8332 82.9306C25.0993 82.9306 24.5122 82.3435 24.5122 81.6096Z" fill="#6B6E75"/>
<path d="M12.3296 81.6096C12.3296 80.8757 12.9167 80.2886 13.6506 80.2886C14.3845 80.2886 14.9716 80.8757 14.9716 81.6096C14.9716 82.3435 14.3845 82.9306 13.6506 82.9306C12.9167 82.9306 12.3296 82.3435 12.3296 81.6096Z" fill="#6B6E75"/>
<path d="M0 81.6096C0 80.8757 0.58711 80.2886 1.32101 80.2886C2.05491 80.2886 2.64202 80.8757 2.64202 81.6096C2.64202 82.3435 2.05491 82.9306 1.32101 82.9306C0.58711 82.9306 0 82.3435 0 81.6096Z" fill="#6B6E75"/>
<path d="M159.403 71.6286C159.403 70.8947 159.99 70.3076 160.724 70.3076C161.458 70.3076 162.045 70.8947 162.045 71.6286C162.045 72.3625 161.458 72.9497 160.724 72.9497C159.99 72.9497 159.403 72.3625 159.403 71.6286Z" fill="#6B6E75"/>
<path d="M147.073 71.6286C147.073 70.8947 147.66 70.3076 148.394 70.3076C149.128 70.3076 149.715 70.8947 149.715 71.6286C149.715 72.3625 149.128 72.9497 148.394 72.9497C147.66 72.9497 147.073 72.3625 147.073 71.6286Z" fill="#6B6E75"/>
<path d="M134.891 71.6286C134.891 70.8947 135.478 70.3076 136.212 70.3076C136.946 70.3076 137.533 70.8947 137.533 71.6286C137.533 72.3625 136.946 72.9497 136.212 72.9497C135.478 72.9497 134.891 72.3625 134.891 71.6286Z" fill="#6B6E75"/>
<path d="M122.561 71.6286C122.561 70.8947 123.148 70.3076 123.882 70.3076C124.616 70.3076 125.203 70.8947 125.203 71.6286C125.203 72.3625 124.616 72.9497 123.882 72.9497C123.148 72.9497 122.561 72.3625 122.561 71.6286Z" fill="#6B6E75"/>
<path d="M110.378 71.6286C110.378 70.8947 110.966 70.3076 111.699 70.3076C112.433 70.3076 113.02 70.8947 113.02 71.6286C113.02 72.3625 112.433 72.9497 111.699 72.9497C110.966 72.9497 110.378 72.3625 110.378 71.6286Z" fill="#6B6E75"/>
<path d="M98.0488 71.6286C98.0488 70.8947 98.636 70.3076 99.3699 70.3076C100.104 70.3076 100.691 70.8947 100.691 71.6286C100.691 72.3625 100.104 72.9497 99.3699 72.9497C98.636 72.9497 98.0488 72.3625 98.0488 71.6286Z" fill="#6B6E75"/>
<path d="M85.8662 71.6286C85.8662 70.8947 86.4533 70.3076 87.1872 70.3076C87.9211 70.3076 88.5082 70.8947 88.5082 71.6286C88.5082 72.3625 87.9211 72.9497 87.1872 72.9497C86.4533 72.9497 85.8662 72.3625 85.8662 71.6286Z" fill="#6B6E75"/>
<path d="M73.5366 71.6286C73.5366 70.8947 74.1238 70.3076 74.8577 70.3076C75.5916 70.3076 76.1787 70.8947 76.1787 71.6286C76.1787 72.3625 75.5916 72.9497 74.8577 72.9497C74.1238 72.9497 73.5366 72.3625 73.5366 71.6286Z" fill="#6B6E75"/>
<path d="M61.3538 71.6286C61.3538 70.8947 61.9409 70.3076 62.6748 70.3076C63.4087 70.3076 63.9958 70.8947 63.9958 71.6286C63.9958 72.3625 63.4087 72.9497 62.6748 72.9497C61.9409 72.9497 61.3538 72.3625 61.3538 71.6286Z" fill="#6B6E75"/>
<path d="M49.0244 71.6286C49.0244 70.8947 49.6115 70.3076 50.3454 70.3076C51.0793 70.3076 51.6665 70.8947 51.6665 71.6286C51.6665 72.3625 51.0793 72.9497 50.3454 72.9497C49.6115 72.9497 49.0244 72.3625 49.0244 71.6286Z" fill="#6B6E75"/>
<path d="M36.8418 71.6286C36.8418 70.8947 37.4289 70.3076 38.1628 70.3076C38.8967 70.3076 39.4838 70.8947 39.4838 71.6286C39.4838 72.3625 38.8967 72.9497 38.1628 72.9497C37.4289 72.9497 36.8418 72.3625 36.8418 71.6286Z" fill="#6B6E75"/>
<path d="M24.5122 71.6286C24.5122 70.8947 25.0993 70.3076 25.8332 70.3076C26.5671 70.3076 27.1542 70.8947 27.1542 71.6286C27.1542 72.3625 26.5671 72.9497 25.8332 72.9497C25.0993 72.9497 24.5122 72.3625 24.5122 71.6286Z" fill="#6B6E75"/>
<path d="M12.3296 71.6286C12.3296 70.8947 12.9167 70.3076 13.6506 70.3076C14.3845 70.3076 14.9716 70.8947 14.9716 71.6286C14.9716 72.3625 14.3845 72.9497 13.6506 72.9497C12.9167 72.9497 12.3296 72.3625 12.3296 71.6286Z" fill="#6B6E75"/>
<path d="M0 71.6286C0 70.8947 0.58711 70.3076 1.32101 70.3076C2.05491 70.3076 2.64202 70.8947 2.64202 71.6286C2.64202 72.3625 2.05491 72.9497 1.32101 72.9497C0.58711 72.9497 0 72.3625 0 71.6286Z" fill="#6B6E75"/>
<path d="M159.403 61.5007C159.403 60.7668 159.99 60.1797 160.724 60.1797C161.458 60.1797 162.045 60.7668 162.045 61.5007C162.045 62.2346 161.458 62.8217 160.724 62.8217C159.99 62.8217 159.403 62.2346 159.403 61.5007Z" fill="#6B6E75"/>
<path d="M147.073 61.5007C147.073 60.7668 147.66 60.1797 148.394 60.1797C149.128 60.1797 149.715 60.7668 149.715 61.5007C149.715 62.2346 149.128 62.8217 148.394 62.8217C147.66 62.8217 147.073 62.2346 147.073 61.5007Z" fill="#6B6E75"/>
<path d="M134.891 61.5007C134.891 60.7668 135.478 60.1797 136.212 60.1797C136.946 60.1797 137.533 60.7668 137.533 61.5007C137.533 62.2346 136.946 62.8217 136.212 62.8217C135.478 62.8217 134.891 62.2346 134.891 61.5007Z" fill="#6B6E75"/>
<path d="M122.561 61.5007C122.561 60.7668 123.148 60.1797 123.882 60.1797C124.616 60.1797 125.203 60.7668 125.203 61.5007C125.203 62.2346 124.616 62.8217 123.882 62.8217C123.148 62.8217 122.561 62.2346 122.561 61.5007Z" fill="#6B6E75"/>
<path d="M110.378 61.5007C110.378 60.7668 110.966 60.1797 111.699 60.1797C112.433 60.1797 113.02 60.7668 113.02 61.5007C113.02 62.2346 112.433 62.8217 111.699 62.8217C110.966 62.8217 110.378 62.2346 110.378 61.5007Z" fill="#6B6E75"/>
<path d="M98.0488 61.5007C98.0488 60.7668 98.636 60.1797 99.3699 60.1797C100.104 60.1797 100.691 60.7668 100.691 61.5007C100.691 62.2346 100.104 62.8217 99.3699 62.8217C98.636 62.8217 98.0488 62.2346 98.0488 61.5007Z" fill="#6B6E75"/>
<path d="M85.8662 61.5007C85.8662 60.7668 86.4533 60.1797 87.1872 60.1797C87.9211 60.1797 88.5082 60.7668 88.5082 61.5007C88.5082 62.2346 87.9211 62.8217 87.1872 62.8217C86.4533 62.8217 85.8662 62.2346 85.8662 61.5007Z" fill="#6B6E75"/>
<path d="M73.5366 61.5007C73.5366 60.7668 74.1238 60.1797 74.8577 60.1797C75.5916 60.1797 76.1787 60.7668 76.1787 61.5007C76.1787 62.2346 75.5916 62.8217 74.8577 62.8217C74.1238 62.8217 73.5366 62.2346 73.5366 61.5007Z" fill="#6B6E75"/>
<path d="M61.3538 61.5007C61.3538 60.7668 61.9409 60.1797 62.6748 60.1797C63.4087 60.1797 63.9958 60.7668 63.9958 61.5007C63.9958 62.2346 63.4087 62.8217 62.6748 62.8217C61.9409 62.8217 61.3538 62.2346 61.3538 61.5007Z" fill="#6B6E75"/>
<path d="M49.0244 61.5007C49.0244 60.7668 49.6115 60.1797 50.3454 60.1797C51.0793 60.1797 51.6665 60.7668 51.6665 61.5007C51.6665 62.2346 51.0793 62.8217 50.3454 62.8217C49.6115 62.8217 49.0244 62.2346 49.0244 61.5007Z" fill="#6B6E75"/>
<path d="M36.8418 61.5007C36.8418 60.7668 37.4289 60.1797 38.1628 60.1797C38.8967 60.1797 39.4838 60.7668 39.4838 61.5007C39.4838 62.2346 38.8967 62.8217 38.1628 62.8217C37.4289 62.8217 36.8418 62.2346 36.8418 61.5007Z" fill="#6B6E75"/>
<path d="M24.5122 61.5007C24.5122 60.7668 25.0993 60.1797 25.8332 60.1797C26.5671 60.1797 27.1542 60.7668 27.1542 61.5007C27.1542 62.2346 26.5671 62.8217 25.8332 62.8217C25.0993 62.8217 24.5122 62.2346 24.5122 61.5007Z" fill="#6B6E75"/>
<path d="M12.3296 61.5007C12.3296 60.7668 12.9167 60.1797 13.6506 60.1797C14.3845 60.1797 14.9716 60.7668 14.9716 61.5007C14.9716 62.2346 14.3845 62.8217 13.6506 62.8217C12.9167 62.8217 12.3296 62.2346 12.3296 61.5007Z" fill="#6B6E75"/>
<path d="M0 61.5007C0 60.7668 0.58711 60.1797 1.32101 60.1797C2.05491 60.1797 2.64202 60.7668 2.64202 61.5007C2.64202 62.2346 2.05491 62.8217 1.32101 62.8217C0.58711 62.8217 0 62.2346 0 61.5007Z" fill="#6B6E75"/>
<path d="M159.403 51.5198C159.403 50.7859 159.99 50.1987 160.724 50.1987C161.458 50.1987 162.045 50.7859 162.045 51.5198C162.045 52.2536 161.458 52.8408 160.724 52.8408C159.99 52.8408 159.403 52.2536 159.403 51.5198Z" fill="#6B6E75"/>
<path d="M147.073 51.5198C147.073 50.7859 147.66 50.1987 148.394 50.1987C149.128 50.1987 149.715 50.7859 149.715 51.5198C149.715 52.2536 149.128 52.8408 148.394 52.8408C147.66 52.8408 147.073 52.2536 147.073 51.5198Z" fill="#6B6E75"/>
<path d="M134.891 51.5198C134.891 50.7859 135.478 50.1987 136.212 50.1987C136.946 50.1987 137.533 50.7859 137.533 51.5198C137.533 52.2536 136.946 52.8408 136.212 52.8408C135.478 52.8408 134.891 52.2536 134.891 51.5198Z" fill="#6B6E75"/>
<path d="M122.561 51.5198C122.561 50.7859 123.148 50.1987 123.882 50.1987C124.616 50.1987 125.203 50.7859 125.203 51.5198C125.203 52.2536 124.616 52.8408 123.882 52.8408C123.148 52.8408 122.561 52.2536 122.561 51.5198Z" fill="#6B6E75"/>
<path d="M110.378 51.5198C110.378 50.7859 110.965 50.1987 111.699 50.1987C112.433 50.1987 113.02 50.7859 113.02 51.5198C113.02 52.2536 112.433 52.8408 111.699 52.8408C110.965 52.8408 110.378 52.2536 110.378 51.5198Z" fill="#6B6E75"/>
<path d="M98.0488 51.5198C98.0488 50.7859 98.636 50.1987 99.3699 50.1987C100.104 50.1987 100.691 50.7859 100.691 51.5198C100.691 52.2536 100.104 52.8408 99.3699 52.8408C98.636 52.8408 98.0488 52.2536 98.0488 51.5198Z" fill="#6B6E75"/>
<path d="M85.8662 51.5198C85.8662 50.7859 86.4533 50.1987 87.1872 50.1987C87.9211 50.1987 88.5082 50.7859 88.5082 51.5198C88.5082 52.2536 87.9211 52.8408 87.1872 52.8408C86.4533 52.8408 85.8662 52.2536 85.8662 51.5198Z" fill="#6B6E75"/>
<path d="M73.5366 51.5198C73.5366 50.7859 74.1238 50.1987 74.8577 50.1987C75.5916 50.1987 76.1787 50.7859 76.1787 51.5198C76.1787 52.2536 75.5916 52.8408 74.8577 52.8408C74.1238 52.8408 73.5366 52.2536 73.5366 51.5198Z" fill="#6B6E75"/>
<path d="M61.3538 51.5198C61.3538 50.7859 61.9409 50.1987 62.6748 50.1987C63.4087 50.1987 63.9958 50.7859 63.9958 51.5198C63.9958 52.2536 63.4087 52.8408 62.6748 52.8408C61.9409 52.8408 61.3538 52.2536 61.3538 51.5198Z" fill="#6B6E75"/>
<path d="M49.0244 51.5198C49.0244 50.7859 49.6115 50.1987 50.3454 50.1987C51.0793 50.1987 51.6665 50.7859 51.6665 51.5198C51.6665 52.2536 51.0793 52.8408 50.3454 52.8408C49.6115 52.8408 49.0244 52.2536 49.0244 51.5198Z" fill="#6B6E75"/>
<path d="M36.8418 51.5198C36.8418 50.7859 37.4289 50.1987 38.1628 50.1987C38.8967 50.1987 39.4838 50.7859 39.4838 51.5198C39.4838 52.2536 38.8967 52.8408 38.1628 52.8408C37.4289 52.8408 36.8418 52.2536 36.8418 51.5198Z" fill="#6B6E75"/>
<path d="M24.5122 51.5198C24.5122 50.7859 25.0993 50.1987 25.8332 50.1987C26.5671 50.1987 27.1542 50.7859 27.1542 51.5198C27.1542 52.2536 26.5671 52.8408 25.8332 52.8408C25.0993 52.8408 24.5122 52.2536 24.5122 51.5198Z" fill="#6B6E75"/>
<path d="M12.3296 51.5198C12.3296 50.7859 12.9167 50.1987 13.6506 50.1987C14.3845 50.1987 14.9716 50.7859 14.9716 51.5198C14.9716 52.2536 14.3845 52.8408 13.6506 52.8408C12.9167 52.8408 12.3296 52.2536 12.3296 51.5198Z" fill="#6B6E75"/>
<path d="M0 51.5198C0 50.7859 0.58711 50.1987 1.32101 50.1987C2.05491 50.1987 2.64202 50.7859 2.64202 51.5198C2.64202 52.2536 2.05491 52.8408 1.32101 52.8408C0.58711 52.8408 0 52.2536 0 51.5198Z" fill="#6B6E75"/>
<path d="M159.403 41.3918C159.403 40.6579 159.99 40.0708 160.724 40.0708C161.458 40.0708 162.045 40.6579 162.045 41.3918C162.045 42.1257 161.458 42.7128 160.724 42.7128C159.99 42.7128 159.403 42.1257 159.403 41.3918Z" fill="#6B6E75"/>
<path d="M147.073 41.3918C147.073 40.6579 147.66 40.0708 148.394 40.0708C149.128 40.0708 149.715 40.6579 149.715 41.3918C149.715 42.1257 149.128 42.7128 148.394 42.7128C147.66 42.7128 147.073 42.1257 147.073 41.3918Z" fill="#6B6E75"/>
<path d="M134.891 41.3918C134.891 40.6579 135.478 40.0708 136.212 40.0708C136.946 40.0708 137.533 40.6579 137.533 41.3918C137.533 42.1257 136.946 42.7128 136.212 42.7128C135.478 42.7128 134.891 42.1257 134.891 41.3918Z" fill="#6B6E75"/>
<path d="M122.561 41.3918C122.561 40.6579 123.148 40.0708 123.882 40.0708C124.616 40.0708 125.203 40.6579 125.203 41.3918C125.203 42.1257 124.616 42.7128 123.882 42.7128C123.148 42.7128 122.561 42.1257 122.561 41.3918Z" fill="#6B6E75"/>
<path d="M110.378 41.3918C110.378 40.6579 110.965 40.0708 111.699 40.0708C112.433 40.0708 113.02 40.6579 113.02 41.3918C113.02 42.1257 112.433 42.7128 111.699 42.7128C110.965 42.7128 110.378 42.1257 110.378 41.3918Z" fill="#6B6E75"/>
<path d="M98.0488 41.3918C98.0488 40.6579 98.636 40.0708 99.3699 40.0708C100.104 40.0708 100.691 40.6579 100.691 41.3918C100.691 42.1257 100.104 42.7128 99.3699 42.7128C98.636 42.7128 98.0488 42.1257 98.0488 41.3918Z" fill="#6B6E75"/>
<path d="M85.8662 41.3918C85.8662 40.6579 86.4533 40.0708 87.1872 40.0708C87.9211 40.0708 88.5082 40.6579 88.5082 41.3918C88.5082 42.1257 87.9211 42.7128 87.1872 42.7128C86.4533 42.7128 85.8662 42.1257 85.8662 41.3918Z" fill="#6B6E75"/>
<path d="M73.5366 41.3918C73.5366 40.6579 74.1238 40.0708 74.8577 40.0708C75.5916 40.0708 76.1787 40.6579 76.1787 41.3918C76.1787 42.1257 75.5916 42.7128 74.8577 42.7128C74.1238 42.7128 73.5366 42.1257 73.5366 41.3918Z" fill="#6B6E75"/>
<path d="M61.3538 41.3918C61.3538 40.6579 61.9409 40.0708 62.6748 40.0708C63.4087 40.0708 63.9958 40.6579 63.9958 41.3918C63.9958 42.1257 63.4087 42.7128 62.6748 42.7128C61.9409 42.7128 61.3538 42.1257 61.3538 41.3918Z" fill="#6B6E75"/>
<path d="M49.0244 41.3918C49.0244 40.6579 49.6115 40.0708 50.3454 40.0708C51.0793 40.0708 51.6665 40.6579 51.6665 41.3918C51.6665 42.1257 51.0793 42.7128 50.3454 42.7128C49.6115 42.7128 49.0244 42.1257 49.0244 41.3918Z" fill="#6B6E75"/>
<path d="M36.8418 41.3918C36.8418 40.6579 37.4289 40.0708 38.1628 40.0708C38.8967 40.0708 39.4838 40.6579 39.4838 41.3918C39.4838 42.1257 38.8967 42.7128 38.1628 42.7128C37.4289 42.7128 36.8418 42.1257 36.8418 41.3918Z" fill="#6B6E75"/>
<path d="M24.5122 41.3918C24.5122 40.6579 25.0993 40.0708 25.8332 40.0708C26.5671 40.0708 27.1542 40.6579 27.1542 41.3918C27.1542 42.1257 26.5671 42.7128 25.8332 42.7128C25.0993 42.7128 24.5122 42.1257 24.5122 41.3918Z" fill="#6B6E75"/>
<path d="M12.3296 41.3918C12.3296 40.6579 12.9167 40.0708 13.6506 40.0708C14.3845 40.0708 14.9716 40.6579 14.9716 41.3918C14.9716 42.1257 14.3845 42.7128 13.6506 42.7128C12.9167 42.7128 12.3296 42.1257 12.3296 41.3918Z" fill="#6B6E75"/>
<path d="M0 41.3918C0 40.6579 0.58711 40.0708 1.32101 40.0708C2.05491 40.0708 2.64202 40.6579 2.64202 41.3918C2.64202 42.1257 2.05491 42.7128 1.32101 42.7128C0.58711 42.7128 0 42.1257 0 41.3918Z" fill="#6B6E75"/>
<path d="M159.403 31.4109C159.403 30.677 159.99 30.0898 160.724 30.0898C161.458 30.0898 162.045 30.677 162.045 31.4109C162.045 32.1448 161.458 32.7319 160.724 32.7319C159.99 32.7319 159.403 32.1448 159.403 31.4109Z" fill="#6B6E75"/>
<path d="M147.073 31.4109C147.073 30.677 147.66 30.0898 148.394 30.0898C149.128 30.0898 149.715 30.677 149.715 31.4109C149.715 32.1448 149.128 32.7319 148.394 32.7319C147.66 32.7319 147.073 32.1448 147.073 31.4109Z" fill="#6B6E75"/>
<path d="M134.891 31.4109C134.891 30.677 135.478 30.0898 136.212 30.0898C136.946 30.0898 137.533 30.677 137.533 31.4109C137.533 32.1448 136.946 32.7319 136.212 32.7319C135.478 32.7319 134.891 32.1448 134.891 31.4109Z" fill="#6B6E75"/>
<path d="M122.561 31.4109C122.561 30.677 123.148 30.0898 123.882 30.0898C124.616 30.0898 125.203 30.677 125.203 31.4109C125.203 32.1448 124.616 32.7319 123.882 32.7319C123.148 32.7319 122.561 32.1448 122.561 31.4109Z" fill="#6B6E75"/>
<path d="M110.378 31.4109C110.378 30.677 110.965 30.0898 111.699 30.0898C112.433 30.0898 113.02 30.677 113.02 31.4109C113.02 32.1448 112.433 32.7319 111.699 32.7319C110.965 32.7319 110.378 32.1448 110.378 31.4109Z" fill="#6B6E75"/>
<path d="M98.0488 31.4109C98.0488 30.677 98.636 30.0898 99.3699 30.0898C100.104 30.0898 100.691 30.677 100.691 31.4109C100.691 32.1448 100.104 32.7319 99.3699 32.7319C98.636 32.7319 98.0488 32.1448 98.0488 31.4109Z" fill="#6B6E75"/>
<path d="M85.8662 31.4109C85.8662 30.677 86.4533 30.0898 87.1872 30.0898C87.9211 30.0898 88.5082 30.677 88.5082 31.4109C88.5082 32.1448 87.9211 32.7319 87.1872 32.7319C86.4533 32.7319 85.8662 32.1448 85.8662 31.4109Z" fill="#6B6E75"/>
<path d="M73.5366 31.4109C73.5366 30.677 74.1238 30.0898 74.8577 30.0898C75.5916 30.0898 76.1787 30.677 76.1787 31.4109C76.1787 32.1448 75.5916 32.7319 74.8577 32.7319C74.1238 32.7319 73.5366 32.1448 73.5366 31.4109Z" fill="#6B6E75"/>
<path d="M61.3538 31.4109C61.3538 30.677 61.9409 30.0898 62.6748 30.0898C63.4087 30.0898 63.9958 30.677 63.9958 31.4109C63.9958 32.1448 63.4087 32.7319 62.6748 32.7319C61.9409 32.7319 61.3538 32.1448 61.3538 31.4109Z" fill="#6B6E75"/>
<path d="M49.0244 31.4109C49.0244 30.677 49.6115 30.0898 50.3454 30.0898C51.0793 30.0898 51.6665 30.677 51.6665 31.4109C51.6665 32.1448 51.0793 32.7319 50.3454 32.7319C49.6115 32.7319 49.0244 32.1448 49.0244 31.4109Z" fill="#6B6E75"/>
<path d="M36.8418 31.4109C36.8418 30.677 37.4289 30.0898 38.1628 30.0898C38.8967 30.0898 39.4838 30.677 39.4838 31.4109C39.4838 32.1448 38.8967 32.7319 38.1628 32.7319C37.4289 32.7319 36.8418 32.1448 36.8418 31.4109Z" fill="#6B6E75"/>
<path d="M24.5122 31.4109C24.5122 30.677 25.0993 30.0898 25.8332 30.0898C26.5671 30.0898 27.1542 30.677 27.1542 31.4109C27.1542 32.1448 26.5671 32.7319 25.8332 32.7319C25.0993 32.7319 24.5122 32.1448 24.5122 31.4109Z" fill="#6B6E75"/>
<path d="M12.3296 31.4109C12.3296 30.677 12.9167 30.0898 13.6506 30.0898C14.3845 30.0898 14.9716 30.677 14.9716 31.4109C14.9716 32.1448 14.3845 32.7319 13.6506 32.7319C12.9167 32.7319 12.3296 32.1448 12.3296 31.4109Z" fill="#6B6E75"/>
<path d="M0 31.4109C0 30.677 0.58711 30.0898 1.32101 30.0898C2.05491 30.0898 2.64202 30.677 2.64202 31.4109C2.64202 32.1448 2.05491 32.7319 1.32101 32.7319C0.58711 32.7319 0 32.1448 0 31.4109Z" fill="#6B6E75"/>
<path d="M159.403 21.2829C159.403 20.549 159.99 19.9619 160.724 19.9619C161.458 19.9619 162.045 20.549 162.045 21.2829C162.045 22.0168 161.458 22.604 160.724 22.604C159.99 22.604 159.403 22.0168 159.403 21.2829Z" fill="#6B6E75"/>
<path d="M147.073 21.2829C147.073 20.549 147.66 19.9619 148.394 19.9619C149.128 19.9619 149.715 20.549 149.715 21.2829C149.715 22.0168 149.128 22.604 148.394 22.604C147.66 22.604 147.073 22.0168 147.073 21.2829Z" fill="#6B6E75"/>
<path d="M134.891 21.2829C134.891 20.549 135.478 19.9619 136.212 19.9619C136.946 19.9619 137.533 20.549 137.533 21.2829C137.533 22.0168 136.946 22.604 136.212 22.604C135.478 22.604 134.891 22.0168 134.891 21.2829Z" fill="#6B6E75"/>
<path d="M122.561 21.2829C122.561 20.549 123.148 19.9619 123.882 19.9619C124.616 19.9619 125.203 20.549 125.203 21.2829C125.203 22.0168 124.616 22.604 123.882 22.604C123.148 22.604 122.561 22.0168 122.561 21.2829Z" fill="#6B6E75"/>
<path d="M110.378 21.2829C110.378 20.549 110.965 19.9619 111.699 19.9619C112.433 19.9619 113.02 20.549 113.02 21.2829C113.02 22.0168 112.433 22.604 111.699 22.604C110.965 22.604 110.378 22.0168 110.378 21.2829Z" fill="#6B6E75"/>
<path d="M98.0488 21.2829C98.0488 20.549 98.636 19.9619 99.3699 19.9619C100.104 19.9619 100.691 20.549 100.691 21.2829C100.691 22.0168 100.104 22.604 99.3699 22.604C98.636 22.604 98.0488 22.0168 98.0488 21.2829Z" fill="#6B6E75"/>
<path d="M85.8662 21.2829C85.8662 20.549 86.4533 19.9619 87.1872 19.9619C87.9211 19.9619 88.5082 20.549 88.5082 21.2829C88.5082 22.0168 87.9211 22.604 87.1872 22.604C86.4533 22.604 85.8662 22.0168 85.8662 21.2829Z" fill="#6B6E75"/>
<path d="M73.5366 21.2829C73.5366 20.549 74.1238 19.9619 74.8577 19.9619C75.5916 19.9619 76.1787 20.549 76.1787 21.2829C76.1787 22.0168 75.5916 22.604 74.8577 22.604C74.1238 22.604 73.5366 22.0168 73.5366 21.2829Z" fill="#6B6E75"/>
<path d="M61.3538 21.2829C61.3538 20.549 61.9409 19.9619 62.6748 19.9619C63.4087 19.9619 63.9958 20.549 63.9958 21.2829C63.9958 22.0168 63.4087 22.604 62.6748 22.604C61.9409 22.604 61.3538 22.0168 61.3538 21.2829Z" fill="#6B6E75"/>
<path d="M49.0244 21.2829C49.0244 20.549 49.6115 19.9619 50.3454 19.9619C51.0793 19.9619 51.6665 20.549 51.6665 21.2829C51.6665 22.0168 51.0793 22.604 50.3454 22.604C49.6115 22.604 49.0244 22.0168 49.0244 21.2829Z" fill="#6B6E75"/>
<path d="M36.8418 21.2829C36.8418 20.549 37.4289 19.9619 38.1628 19.9619C38.8967 19.9619 39.4838 20.549 39.4838 21.2829C39.4838 22.0168 38.8967 22.604 38.1628 22.604C37.4289 22.604 36.8418 22.0168 36.8418 21.2829Z" fill="#6B6E75"/>
<path d="M24.5122 21.2829C24.5122 20.549 25.0993 19.9619 25.8332 19.9619C26.5671 19.9619 27.1542 20.549 27.1542 21.2829C27.1542 22.0168 26.5671 22.604 25.8332 22.604C25.0993 22.604 24.5122 22.0168 24.5122 21.2829Z" fill="#6B6E75"/>
<path d="M12.3296 21.2829C12.3296 20.549 12.9167 19.9619 13.6506 19.9619C14.3845 19.9619 14.9716 20.549 14.9716 21.2829C14.9716 22.0168 14.3845 22.604 13.6506 22.604C12.9167 22.604 12.3296 22.0168 12.3296 21.2829Z" fill="#6B6E75"/>
<path d="M0 21.2829C0 20.549 0.58711 19.9619 1.32101 19.9619C2.05491 19.9619 2.64202 20.549 2.64202 21.2829C2.64202 22.0168 2.05491 22.604 1.32101 22.604C0.58711 22.604 0 22.0168 0 21.2829Z" fill="#6B6E75"/>
<path d="M159.403 11.302C159.403 10.5681 159.99 9.98096 160.724 9.98096C161.458 9.98096 162.045 10.5681 162.045 11.302C162.045 12.0359 161.458 12.623 160.724 12.623C159.99 12.623 159.403 12.0359 159.403 11.302Z" fill="#6B6E75"/>
<path d="M147.073 11.302C147.073 10.5681 147.66 9.98096 148.394 9.98096C149.128 9.98096 149.715 10.5681 149.715 11.302C149.715 12.0359 149.128 12.623 148.394 12.623C147.66 12.623 147.073 12.0359 147.073 11.302Z" fill="#6B6E75"/>
<path d="M134.891 11.302C134.891 10.5681 135.478 9.98096 136.212 9.98096C136.946 9.98096 137.533 10.5681 137.533 11.302C137.533 12.0359 136.946 12.623 136.212 12.623C135.478 12.623 134.891 12.0359 134.891 11.302Z" fill="#6B6E75"/>
<path d="M122.561 11.302C122.561 10.5681 123.148 9.98096 123.882 9.98096C124.616 9.98096 125.203 10.5681 125.203 11.302C125.203 12.0359 124.616 12.623 123.882 12.623C123.148 12.623 122.561 12.0359 122.561 11.302Z" fill="#6B6E75"/>
<path d="M110.378 11.302C110.378 10.5681 110.965 9.98096 111.699 9.98096C112.433 9.98096 113.02 10.5681 113.02 11.302C113.02 12.0359 112.433 12.623 111.699 12.623C110.965 12.623 110.378 12.0359 110.378 11.302Z" fill="#6B6E75"/>
<path d="M98.0488 11.302C98.0488 10.5681 98.636 9.98096 99.3699 9.98096C100.104 9.98096 100.691 10.5681 100.691 11.302C100.691 12.0359 100.104 12.623 99.3699 12.623C98.636 12.623 98.0488 12.0359 98.0488 11.302Z" fill="#6B6E75"/>
<path d="M85.8662 11.302C85.8662 10.5681 86.4533 9.98096 87.1872 9.98096C87.9211 9.98096 88.5082 10.5681 88.5082 11.302C88.5082 12.0359 87.9211 12.623 87.1872 12.623C86.4533 12.623 85.8662 12.0359 85.8662 11.302Z" fill="#6B6E75"/>
<path d="M73.5366 11.302C73.5366 10.5681 74.1238 9.98096 74.8577 9.98096C75.5916 9.98096 76.1787 10.5681 76.1787 11.302C76.1787 12.0359 75.5916 12.623 74.8577 12.623C74.1238 12.623 73.5366 12.0359 73.5366 11.302Z" fill="#6B6E75"/>
<path d="M61.3538 11.302C61.3538 10.5681 61.9409 9.98096 62.6748 9.98096C63.4087 9.98096 63.9958 10.5681 63.9958 11.302C63.9958 12.0359 63.4087 12.623 62.6748 12.623C61.9409 12.623 61.3538 12.0359 61.3538 11.302Z" fill="#6B6E75"/>
<path d="M49.0244 11.302C49.0244 10.5681 49.6115 9.98096 50.3454 9.98096C51.0793 9.98096 51.6665 10.5681 51.6665 11.302C51.6665 12.0359 51.0793 12.623 50.3454 12.623C49.6115 12.623 49.0244 12.0359 49.0244 11.302Z" fill="#6B6E75"/>
<path d="M36.8418 11.302C36.8418 10.5681 37.4289 9.98096 38.1628 9.98096C38.8967 9.98096 39.4838 10.5681 39.4838 11.302C39.4838 12.0359 38.8967 12.623 38.1628 12.623C37.4289 12.623 36.8418 12.0359 36.8418 11.302Z" fill="#6B6E75"/>
<path d="M24.5122 11.302C24.5122 10.5681 25.0993 9.98096 25.8332 9.98096C26.5671 9.98096 27.1542 10.5681 27.1542 11.302C27.1542 12.0359 26.5671 12.623 25.8332 12.623C25.0993 12.623 24.5122 12.0359 24.5122 11.302Z" fill="#6B6E75"/>
<path d="M12.3296 11.302C12.3296 10.5681 12.9167 9.98096 13.6506 9.98096C14.3845 9.98096 14.9716 10.5681 14.9716 11.302C14.9716 12.0359 14.3845 12.623 13.6506 12.623C12.9167 12.623 12.3296 12.0359 12.3296 11.302Z" fill="#6B6E75"/>
<path d="M0 11.302C0 10.5681 0.58711 9.98096 1.32101 9.98096C2.05491 9.98096 2.64202 10.5681 2.64202 11.302C2.64202 12.0359 2.05491 12.623 1.32101 12.623C0.58711 12.623 0 12.0359 0 11.302Z" fill="#6B6E75"/>
<path d="M159.403 1.32102C159.403 0.58712 159.99 0 160.724 0C161.458 0 162.045 0.58712 162.045 1.32102C162.045 2.05492 161.458 2.64204 160.724 2.64204C159.99 2.49526 159.403 1.90814 159.403 1.32102Z" fill="#6B6E75"/>
<path d="M147.073 1.32102C147.073 0.58712 147.66 0 148.394 0C149.128 0 149.715 0.58712 149.715 1.32102C149.715 2.05492 149.128 2.64204 148.394 2.64204C147.66 2.49526 147.073 1.90814 147.073 1.32102Z" fill="#6B6E75"/>
<path d="M134.891 1.32102C134.891 0.58712 135.478 0 136.212 0C136.946 0 137.533 0.58712 137.533 1.32102C137.533 2.05492 136.946 2.64204 136.212 2.64204C135.478 2.49526 134.891 1.90814 134.891 1.32102Z" fill="#6B6E75"/>
<path d="M122.561 1.32102C122.561 0.58712 123.148 0 123.882 0C124.616 0 125.203 0.58712 125.203 1.32102C125.203 2.05492 124.616 2.64204 123.882 2.64204C123.148 2.49526 122.561 1.90814 122.561 1.32102Z" fill="#6B6E75"/>
<path d="M110.378 1.32102C110.378 0.58712 110.965 0 111.699 0C112.433 0 113.02 0.58712 113.02 1.32102C113.02 2.05492 112.433 2.64204 111.699 2.64204C110.965 2.49526 110.378 1.90814 110.378 1.32102Z" fill="#6B6E75"/>
<path d="M98.0488 1.32102C98.0488 0.58712 98.636 0 99.3699 0C100.104 0 100.691 0.58712 100.691 1.32102C100.691 2.05492 100.104 2.64204 99.3699 2.64204C98.636 2.49526 98.0488 1.90814 98.0488 1.32102Z" fill="#6B6E75"/>
<path d="M85.8662 1.32102C85.8662 0.58712 86.4533 0 87.1872 0C87.9211 0 88.5082 0.58712 88.5082 1.32102C88.5082 2.05492 87.9211 2.64204 87.1872 2.64204C86.4533 2.49526 85.8662 1.90814 85.8662 1.32102Z" fill="#6B6E75"/>
<path d="M73.5366 1.32102C73.5366 0.58712 74.1238 0 74.8577 0C75.5916 0 76.1787 0.58712 76.1787 1.32102C76.1787 2.05492 75.5916 2.64204 74.8577 2.64204C74.1238 2.49526 73.5366 1.90814 73.5366 1.32102Z" fill="#6B6E75"/>
<path d="M61.354 1.32102C61.354 0.58712 61.9411 0 62.675 0C63.4089 0 63.996 0.58712 63.996 1.32102C63.996 2.05492 63.4089 2.64204 62.675 2.64204C61.9411 2.49526 61.354 1.90814 61.354 1.32102Z" fill="#6B6E75"/>
<path d="M49.0244 1.32102C49.0244 0.58712 49.6115 0 50.3454 0C51.0793 0 51.6665 0.58712 51.6665 1.32102C51.6665 2.05492 51.0793 2.64204 50.3454 2.64204C49.6115 2.49526 49.0244 1.90814 49.0244 1.32102Z" fill="#6B6E75"/>
<path d="M36.8418 1.32102C36.8418 0.58712 37.4289 0 38.1628 0C38.8967 0 39.4838 0.58712 39.4838 1.32102C39.4838 2.05492 38.8967 2.64204 38.1628 2.64204C37.4289 2.49526 36.8418 1.90814 36.8418 1.32102Z" fill="#6B6E75"/>
<path d="M24.5122 1.32102C24.5122 0.58712 25.0993 0 25.8332 0C26.5671 0 27.1542 0.58712 27.1542 1.32102C27.1542 2.05492 26.5671 2.64204 25.8332 2.64204C25.0993 2.49526 24.5122 1.90814 24.5122 1.32102Z" fill="#6B6E75"/>
<path d="M12.3296 1.32102C12.3296 0.58712 12.9167 0 13.6506 0C14.3845 0 14.9716 0.58712 14.9716 1.32102C14.9716 2.05492 14.3845 2.64204 13.6506 2.64204C12.9167 2.49526 12.3296 1.90814 12.3296 1.32102Z" fill="#6B6E75"/>
<path d="M0 1.32102C0 0.58712 0.58711 0 1.32101 0C2.05491 0 2.64202 0.58712 2.64202 1.32102C2.64202 2.05492 2.05491 2.64204 1.32101 2.64204C0.58711 2.49526 0 1.90814 0 1.32102Z" fill="#6B6E75"/>
</g>
</svg>
