<svg width="60" height="60" viewBox="0 0 60 60" fill="none" xmlns="http://www.w3.org/2000/svg">
<path d="M59.1255 13.4073H56.5041V11.0924C56.5041 10.7196 56.366 10.3701 56.1321 10.1604C52.3891 6.74991 47.7464 5.46082 42.7077 6.43946C38.629 7.23165 34.3821 9.44571 30.3629 12.8637C28.5754 8.20254 25.6001 4.31849 22.0612 2.09696C17.9646 -0.482324 13.4717 -0.691923 9.42297 1.52205C9.09913 1.70087 8.88322 2.11268 8.88322 2.57055V7.04525C7.08993 7.72094 5.40419 8.77004 3.86862 10.168C3.63473 10.3853 3.49665 10.7272 3.49665 11.1V13.4149H0.881593C0.395814 13.4149 0 13.9275 0 14.5566V58.8583C0 59.4874 0.395814 60 0.881593 60H29.997H30.0029H59.1183C59.6041 60 59.9999 59.4874 59.9999 58.8583V14.5497C60.0062 13.9206 59.61 13.408 59.1242 13.408L59.1255 13.4073ZM54.7468 11.6983V14.5414V14.549V14.5566V53.3901C47.9987 48.6982 39.631 49.8789 30.8853 56.7773V15.1472C39.541 7.54227 48.3939 6.26082 54.7468 11.6983V11.6983ZM10.6473 3.33955C18.439 -0.427974 26.2076 6.20597 29.1222 14.7896V55.572C27.1189 52.3794 25.1033 49.6294 22.6021 47.7264C20.221 45.9166 17.6176 45.0231 14.6301 45.0231C13.3766 45.0231 12.0511 45.1786 10.6472 45.4891L10.6473 3.33955ZM5.26075 11.6983C6.38832 10.7349 7.60598 9.9735 8.88962 9.43001V46.8639C8.88962 47.2058 9.00971 47.532 9.21347 47.7493C9.41723 47.9665 9.68753 48.0522 9.95113 47.9823C18.2767 45.7373 22.6676 49.4816 26.2966 54.7404C18.5886 49.6989 11.2825 49.2096 5.266 53.3966V11.6972L5.26075 11.6983ZM1.76372 15.6907H3.50302L3.50344 55.3939C3.50344 55.8133 3.6775 56.1942 3.96536 56.3958C4.24737 56.5979 4.59507 56.5746 4.86494 56.3492C10.8993 51.2611 18.6311 51.7662 26.8606 57.7088H1.76402L1.76372 15.6907ZM58.2444 57.7091H33.1478C41.3775 51.7665 49.1098 51.2539 55.1435 56.3496C55.4133 56.575 55.7614 56.5983 56.043 56.3962C56.325 56.1941 56.505 55.8137 56.505 55.3943V15.691H58.2443L58.2444 57.7091Z" fill="#2E3192"/>
<path d="M15 2.5V45" stroke="#29AAE3" stroke-width="1.5"/>
<path d="M24.5 7V49" stroke="#29AAE3" stroke-width="1.5"/>
<path d="M37 11V53" stroke="#29AAE3" stroke-width="1.5"/>
<path d="M47 8.5V50.5" stroke="#29AAE3" stroke-width="1.5"/>
</svg>
