<svg width="22" height="26" viewBox="0 0 22 26" fill="none" xmlns="http://www.w3.org/2000/svg">
<path d="M18.7998 3.73208C16.8204 1.75265 14.1886 0.662537 11.3893 0.662537C8.59001 0.662537 5.95816 1.75265 3.97878 3.73208C1.99935 5.71156 0.909241 8.34331 0.909241 11.1426C0.909241 16.8054 6.26364 21.5155 9.14022 24.0459C9.53997 24.3976 9.88518 24.7013 10.1602 24.9582C10.5048 25.28 10.9471 25.441 11.3893 25.441C11.8316 25.441 12.2737 25.28 12.6184 24.9582C12.8934 24.7012 13.2386 24.3976 13.6384 24.0459C16.5149 21.5155 21.8693 16.8054 21.8693 11.1426C21.8693 8.34331 20.7792 5.71156 18.7998 3.73208ZM12.6796 22.9562C12.2711 23.3155 11.9184 23.6259 11.6275 23.8975C11.4939 24.0222 11.2846 24.0223 11.151 23.8975C10.8602 23.6258 10.5074 23.3155 10.0988 22.9561C7.3945 20.5772 2.36063 16.1491 2.36063 11.1426C2.36063 6.16425 6.41081 2.11407 11.3892 2.11407C16.3676 2.11407 20.4178 6.16425 20.4178 11.1426C20.4178 16.1491 15.384 20.5772 12.6796 22.9562Z" fill="#2E3192"/>
<path d="M11.3893 6.12823C8.84269 6.12823 6.77087 8.2 6.77087 10.7466C6.77087 13.2933 8.84269 15.365 11.3893 15.365C13.9359 15.365 16.0077 13.2933 16.0077 10.7466C16.0077 8.2 13.9359 6.12823 11.3893 6.12823ZM11.3893 13.9135C9.64306 13.9135 8.22236 12.4928 8.22236 10.7466C8.22236 9.00037 9.64306 7.57967 11.3893 7.57967C13.1356 7.57967 14.5562 9.00037 14.5562 10.7466C14.5562 12.4928 13.1356 13.9135 11.3893 13.9135Z" fill="#2E3192"/>
</svg>
