<svg width="25" height="20" viewBox="0 0 25 20" fill="none" xmlns="http://www.w3.org/2000/svg">
<path d="M22.6008 0.88208H2.1778C0.978463 0.88208 0 1.85948 0 3.05988V17.5786C0 18.7749 0.974107 19.7564 2.1778 19.7564H22.6008C23.7971 19.7564 24.7786 18.7823 24.7786 17.5786V3.05988C24.7786 1.86354 23.8045 0.88208 22.6008 0.88208ZM22.3 2.33395L12.4354 12.1986L2.48555 2.33395H22.3ZM1.45187 17.2779V3.3536L8.44402 10.2858L1.45187 17.2779ZM2.47849 18.3045L9.47504 11.3079L11.9266 13.7385C12.2104 14.0198 12.6684 14.0189 12.951 13.7362L15.3414 11.3458L22.3001 18.3045H2.47849ZM23.3267 17.2779L16.368 10.3192L23.3267 3.36052V17.2779Z" fill="#2E3192"/>
</svg>
