<svg width="510" height="186" viewBox="0 0 510 186" fill="none" xmlns="http://www.w3.org/2000/svg">
<path d="M499.185 103.437H10.8153C5.00608 103.437 0.312744 98.7436 0.312744 92.9344C0.312744 87.1251 5.00608 82.4318 10.8153 82.4318H473.814L410.077 18.6944C405.974 14.5918 405.974 7.92924 410.077 3.82668C414.179 -0.275885 420.842 -0.275885 424.945 3.82668L506.635 85.5169C509.654 88.5364 510.54 93.0328 508.899 96.9713C507.258 100.877 503.418 103.437 499.185 103.437Z" fill="#2E3192"/>
<path d="M417.396 185.226C414.704 185.226 412.013 184.208 409.978 182.141C405.876 178.038 405.876 171.375 409.978 167.273L491.767 85.4841C495.87 81.3816 502.532 81.3816 506.635 85.4841C510.737 89.5867 510.737 96.2493 506.635 100.352L424.846 182.141C422.778 184.208 420.087 185.226 417.396 185.226Z" fill="#2E3192"/>
</svg>
