<svg width="512" height="512" viewBox="0 0 512 512" fill="none" xmlns="http://www.w3.org/2000/svg">
<path d="M488 232H280V24C280 17.6348 277.471 11.5303 272.971 7.02944C268.47 2.52856 262.365 0 256 0C249.635 0 243.53 2.52856 239.029 7.02944C234.529 11.5303 232 17.6348 232 24V232H24C17.6348 232 11.5303 234.529 7.02944 239.029C2.52856 243.53 0 249.635 0 256C0 262.365 2.52856 268.47 7.02944 272.971C11.5303 277.471 17.6348 280 24 280H232V488C232 494.365 234.529 500.47 239.029 504.971C243.53 509.471 249.635 512 256 512C262.365 512 268.47 509.471 272.971 504.971C277.471 500.47 280 494.365 280 488V280H488C494.365 280 500.47 277.471 504.971 272.971C509.471 268.47 512 262.365 512 256C512 249.635 509.471 243.53 504.971 239.029C500.47 234.529 494.365 232 488 232Z" fill="white"/>
</svg>
