<svg width="510" height="186" viewBox="0 0 510 186" fill="none" xmlns="http://www.w3.org/2000/svg">
<path d="M10.8408 82.5384L499.21 82.5384C505.019 82.5384 509.713 87.2317 509.713 93.041C509.713 98.8502 505.019 103.544 499.21 103.544L36.2111 103.544L99.9485 167.281C104.051 171.384 104.051 178.046 99.9485 182.149C95.846 186.251 89.1834 186.251 85.0808 182.149L3.3906 100.458C0.371108 97.4389 -0.515054 92.9425 1.12597 89.004C2.767 85.0984 6.60699 82.5384 10.8408 82.5384Z" fill="#2E3192"/>
<path d="M92.6296 0.749642C95.3209 0.749642 98.0122 1.76709 100.047 3.83478C104.15 7.93734 104.15 14.5999 100.047 18.7025L18.2584 100.491C14.1558 104.594 7.49325 104.594 3.39069 100.491C-0.711877 96.3886 -0.711877 89.726 3.39069 85.6235L85.1794 3.83478C87.2471 1.76709 89.9384 0.749642 92.6296 0.749642Z" fill="#2E3192"/>
</svg>
