<svg width="46" height="46" viewBox="0 0 46 46" fill="none" xmlns="http://www.w3.org/2000/svg">
<path d="M45.8475 13.1483C45.8486 12.7213 45.7649 12.2984 45.6013 11.9039C45.4377 11.5095 45.1974 11.1515 44.8945 10.8506L42.1677 8.12301L44.2802 6.01051C44.812 5.47753 45.1107 4.75535 45.1107 4.00241C45.1107 3.24948 44.812 2.5273 44.2802 1.99432C44.0285 1.67675 43.713 1.41554 43.354 1.22761C42.9951 1.03967 42.6006 0.929181 42.1963 0.903296C41.7919 0.87741 41.3866 0.936701 41.0066 1.07733C40.6266 1.21796 40.2803 1.4368 39.9902 1.71969L37.8777 3.8322L35.1493 1.10463C34.5399 0.495351 33.7134 0.153076 32.8516 0.153076C31.9898 0.153076 31.1633 0.495351 30.5538 1.10463L28.1236 3.53482C24.1375 -0.20268 18.0405 6.04301 21.8918 9.94057L26.831 14.8789L14.8791 26.8308L9.94071 21.8924C6.04884 18.0444 -0.1936 24.1268 3.53496 28.1227L1.10559 30.5529C0.803779 30.8547 0.564371 31.213 0.401033 31.6073C0.237695 32.0016 0.153625 32.4242 0.153625 32.851C0.153625 33.2778 0.237695 33.7005 0.401033 34.0948C0.564371 34.4891 0.803779 34.8474 1.10559 35.1492L3.83234 37.8768L1.71984 39.9893C-0.9281 42.6835 3.29934 46.9386 6.00984 44.2809L8.12234 42.1676L10.8507 44.8951C11.4602 45.5044 12.2867 45.8467 13.1485 45.8467C14.0102 45.8467 14.8367 45.5044 15.4462 44.8951L17.8764 42.4649C21.8625 46.2024 27.9595 39.9559 24.1083 36.0592L19.1691 31.1208L31.121 19.1689L36.0593 24.1073C36.4888 24.5248 37.0018 24.8468 37.5645 25.0521C38.1272 25.2575 38.727 25.3415 39.3244 25.2987C39.9219 25.2558 40.5035 25.0872 41.0312 24.8037C41.5589 24.5203 42.0207 24.1284 42.3863 23.6539C43.1474 22.89 43.5812 21.8598 43.5959 20.7815C43.6106 19.7032 43.205 18.6615 42.4651 17.8771L44.8945 15.4469C45.1973 15.1458 45.4375 14.7876 45.6009 14.393C45.7644 13.9985 45.8487 13.5754 45.8475 13.1483ZM41.1375 2.86857C42.2912 1.69694 44.3022 3.70544 43.1305 4.86082L41.018 6.97332L39.0258 4.98107L41.1375 2.86857ZM4.86177 43.1312C3.70802 44.3028 1.69709 42.2943 2.86871 41.1389L4.98121 39.0264L6.97346 41.0187L4.86177 43.1312ZM14.2973 43.7463C13.9877 44.0415 13.5763 44.2062 13.1485 44.2062C12.7206 44.2062 12.3092 44.0415 11.9996 43.7463L2.25446 34.0003C1.95155 33.6945 1.78162 33.2815 1.78162 32.851C1.78162 32.4206 1.95155 32.0076 2.25446 31.7018L4.67571 29.2805L16.7194 41.3242L14.2973 43.7463ZM22.9586 40.7839C22.7051 41.1498 22.3661 41.4483 21.9711 41.6534C21.576 41.8584 21.1368 41.9639 20.6916 41.9605C20.2465 41.9571 19.8089 41.8451 19.417 41.6341C19.0251 41.4231 18.6906 41.1195 18.4427 40.7498L4.76265 27.0705C4.49743 26.7901 4.2966 26.4551 4.17419 26.0891C4.05177 25.723 4.01072 25.3346 4.05389 24.951C4.09705 24.5675 4.22341 24.1979 4.42413 23.8682C4.62485 23.5385 4.8951 23.2566 5.21603 23.0421C5.69049 22.5688 6.33333 22.303 7.00353 22.303C7.67372 22.303 8.31656 22.5688 8.79103 23.0421L22.9594 37.2081C23.4325 37.6826 23.6982 38.3254 23.6982 38.9956C23.6982 39.6657 23.4325 40.3085 22.9594 40.7831L22.9586 40.7839ZM29.9721 18.0209L18.0202 29.9711L16.028 27.9781L27.9798 16.0262L29.9721 18.0209ZM41.2374 22.5051C41.0229 22.8261 40.741 23.0965 40.4112 23.2973C40.0814 23.4981 39.7118 23.6245 39.3281 23.6677C38.9444 23.7109 38.556 23.6698 38.1898 23.5473C37.8237 23.4248 37.4887 23.2238 37.2082 22.9584L23.0415 8.79169C22.5681 8.31723 22.3023 7.67439 22.3023 7.00419C22.3023 6.334 22.5681 5.69116 23.0415 5.21669C23.3031 4.86373 23.6399 4.57342 24.0277 4.36683C24.4154 4.16024 24.8443 4.04256 25.2831 4.02232C25.7297 4.04493 26.1656 4.16678 26.5591 4.37901C26.9526 4.59123 27.2939 4.8885 27.5581 5.24919L40.7507 18.4426L41.2382 18.9301C41.7115 19.4045 41.9774 20.0474 41.9774 20.7176C41.9774 21.3878 41.7107 22.0306 41.2374 22.5051ZM43.7456 14.298L41.3243 16.7193L29.2806 4.67557L31.7019 2.25432C32.0116 1.9586 32.4234 1.79359 32.8516 1.79359C33.2798 1.79359 33.6916 1.9586 34.0013 2.25432L43.7448 11.9986C44.0477 12.3044 44.2176 12.7175 44.2176 13.1479C44.2176 13.5784 44.0477 13.9914 43.7448 14.2972L43.7456 14.298Z" fill="#2E3192"/>
</svg>
