<svg width="52" height="52" viewBox="0 0 52 52" fill="none" xmlns="http://www.w3.org/2000/svg">
<path d="M50.0475 16.0009C49.2021 12.9242 47.9888 10.1562 46.4411 7.77365C44.8734 5.36039 43.0387 3.45978 40.988 2.12456C38.8226 0.714827 36.5146 0 34.1278 0H17.8721C15.4852 0 13.1772 0.714827 11.012 2.12466C8.96126 3.45978 7.12659 5.3605 5.55898 7.77365C4.01129 10.156 2.79789 12.9242 1.95257 16.0009C1.0817 19.1703 0.640198 22.5344 0.640198 25.9999C0.640198 29.4655 1.0817 32.8297 1.95257 35.999C2.798 39.0757 4.01129 41.8437 5.55898 44.2262C7.12659 46.6395 8.96126 48.5401 11.012 49.8753C13.1772 51.2852 15.4852 52 17.8721 52H34.1278C36.5146 52 38.8227 51.2852 40.988 49.8753C43.0387 48.5401 44.8734 46.6395 46.4411 44.2262C47.9888 41.8438 49.2022 39.0757 50.0475 35.999C50.9184 32.8296 51.3599 29.4655 51.3599 25.9999C51.3599 22.5344 50.9183 19.1703 50.0475 16.0009ZM6.5964 42.1875C5.70116 40.6503 4.94605 38.9634 4.34147 37.1639L10.995 40.2915C11.6058 41.6965 12.3078 43.0116 13.0968 44.2262C13.1112 44.2484 13.1258 44.2702 13.1402 44.2923L6.5964 42.1875ZM4.14145 15.4539L8.82167 18.1297C8.86704 18.1556 8.91426 18.1772 8.96255 18.1954C8.59566 19.9645 8.35656 21.7848 8.24719 23.6415L2.86774 21.4329C3.12222 19.3514 3.55051 17.3446 4.14145 15.4539ZM17.0047 28.9518L10.3894 30.4335C10.216 28.962 10.1294 27.4817 10.1301 26.0001C10.1301 25.928 10.1306 25.8561 10.131 25.7841L16.9336 24.2606C16.9085 24.8401 16.896 25.42 16.8959 26.0001C16.896 26.9931 16.9324 27.9777 17.0047 28.9518ZM8.17907 25.7237C8.1677 27.2391 8.24348 28.7539 8.40605 30.2606L2.6413 27.9347C2.56599 26.4452 2.57774 24.9527 2.6765 23.4646L8.17907 25.7237ZM8.71522 32.4905C8.91479 33.6722 9.1735 34.8432 9.49036 35.9991C9.6439 36.5582 9.81173 37.1133 9.9937 37.6638L4.01291 34.8524C3.89596 34.7973 3.76922 34.766 3.64007 34.7604C3.26636 33.2643 2.98967 31.7078 2.81478 30.1097L8.71522 32.4905ZM15.9012 44.7892C15.4866 44.2659 15.097 43.7231 14.7339 43.1628C14.1421 42.2519 13.6036 41.2802 13.1202 40.257L19.1513 38.9062C19.7808 40.5751 20.5311 42.131 21.396 43.5586L15.9012 44.7892ZM12.3375 38.4317C11.6039 36.5385 11.0448 34.5021 10.6728 32.3705L17.2 30.9087C17.419 32.6493 17.7554 34.3506 18.2084 35.999C18.305 36.3503 18.4072 36.7 18.515 37.0481L12.3375 38.4317ZM17.0742 22.2285L10.1953 23.769C10.3135 21.747 10.5918 19.7783 11.0208 17.8984L18.1258 16.3072C17.6192 18.2186 17.2679 20.1991 17.0742 22.2285ZM18.7699 14.1625L11.5817 15.7723C12.0517 14.2103 12.6313 12.7249 13.315 11.3391L20.6873 9.68801C19.9467 11.0772 19.3058 12.5727 18.7699 14.1625ZM22.079 7.37579L14.5962 9.05169C14.6418 8.97979 14.6877 8.90832 14.7338 8.83717C17.618 4.39736 21.4095 1.95216 25.4099 1.95216H27.5396C27.4487 2.00858 27.358 2.06575 27.2677 2.12456C25.3312 3.38549 23.5874 5.15096 22.079 7.37579ZM17.8721 1.95216H18.8218C18.7309 2.00858 18.6402 2.06575 18.5499 2.12456C16.4992 3.45978 14.6645 5.36039 13.0968 7.77365C12.8048 8.22335 12.5271 8.68219 12.2642 9.14948L8.49972 7.04084C11.1793 3.74263 14.4491 1.95216 17.8721 1.95216ZM7.19601 8.83717C7.24203 8.76624 7.28838 8.69585 7.33495 8.626L11.368 10.8852C10.6182 12.4721 9.99002 14.1825 9.49036 16.0009C9.46957 16.0765 9.44932 16.1523 9.42896 16.2281L4.79553 13.5791C5.45686 11.8704 6.26005 10.2779 7.19601 8.83717ZM17.8721 50.0478C14.3987 50.0478 11.083 48.2042 8.38179 44.8125L14.8392 46.8897C14.9358 46.9207 15.0366 46.9365 15.138 46.9365C15.1452 46.9365 15.1523 46.9361 15.1594 46.936C16.2075 48.105 17.3411 49.0885 18.5497 49.8754C18.6401 49.9342 18.7308 49.9914 18.8217 50.0478H17.8721ZM25.41 50.0478C22.5466 50.0478 19.7903 48.7949 17.3972 46.4547L22.5544 45.2996C23.9501 47.2088 25.5315 48.7448 27.2678 49.8753C27.3581 49.9341 27.4489 49.9913 27.5397 50.0477L25.41 50.0478ZM44.804 43.1628C41.9197 47.6026 38.1282 50.0478 34.1278 50.0478C30.2816 50.0478 26.6287 47.7872 23.7894 43.6668C23.7817 43.6552 23.7738 43.6437 23.7657 43.6325C23.6591 43.4773 23.5544 43.3207 23.4517 43.1628C22.3588 41.4803 21.4468 39.5909 20.7305 37.5509C20.7144 37.4795 20.6903 37.4102 20.6587 37.3442C19.8414 34.9613 19.2894 32.3776 19.0261 29.6806C19.0247 29.6432 19.0211 29.6058 19.0153 29.5688C18.9036 28.3824 18.8478 27.1915 18.8482 25.9999C18.8482 25.0407 18.8841 24.0903 18.9544 23.1523C18.959 23.1176 18.9616 23.0824 18.9623 23.0469C19.3804 17.6711 20.9378 12.7073 23.4518 8.83717C26.3361 4.39736 30.1274 1.95216 34.1278 1.95216C38.1283 1.95216 41.9197 4.39725 44.804 8.83717C47.7726 13.4071 49.4076 19.5024 49.4076 25.9999C49.4076 32.4976 47.7726 38.5929 44.804 43.1628Z" fill="#2E3192"/>
<path d="M34.1278 4.3103C29.844 4.3103 26.8392 7.95147 25.4294 10.1218C24.1234 12.1324 23.0922 14.4946 22.3646 17.143C21.596 19.9399 21.2062 22.9198 21.2062 26.0001C21.2062 29.0804 21.596 32.0603 22.3646 34.8571C23.0922 37.5055 24.1234 39.8678 25.4294 41.8783C26.8392 44.0487 29.844 47.6898 34.1278 47.6898C38.4118 47.6898 41.4166 44.0487 42.8265 41.8783C44.1325 39.8679 45.1636 37.5056 45.8913 34.8571C46.6599 32.0599 47.0495 29.08 47.0495 26C47.0495 22.9201 46.6599 19.9402 45.8913 17.1429C45.1636 14.4943 44.1325 12.132 42.8265 10.1216C41.4166 7.95147 38.4118 4.3103 34.1278 4.3103ZM45.0974 26.0001C45.0974 28.9053 44.7312 31.7112 44.009 34.3399C43.3346 36.7946 42.3859 38.9731 41.1894 40.8149C39.9952 42.6533 37.4897 45.7377 34.1278 45.7377C30.7661 45.7377 28.2607 42.6533 27.0665 40.8149C25.87 38.973 24.9215 36.7945 24.247 34.3397C23.5247 31.7114 23.1585 28.9055 23.1585 26C23.1585 23.0944 23.5247 20.2885 24.247 17.6601C24.9214 15.2055 25.87 13.0271 27.0665 11.1851C28.2607 9.34669 30.7661 6.26235 34.1278 6.26235C37.4897 6.26235 39.9952 9.34669 41.1894 11.1851C42.3859 13.0269 43.3346 15.2054 44.009 17.6601C44.7312 20.289 45.0974 23.0949 45.0974 26.0001Z" fill="#2E3192"/>
<path d="M36.8907 9.63455C35.9479 8.88788 34.9925 8.49316 34.1278 8.49316C33.2631 8.49316 32.3077 8.88788 31.365 9.63455C30.5143 10.3082 29.6748 11.2646 28.937 12.4004C26.6823 15.8712 25.3892 20.8281 25.3892 26C25.3892 31.1718 26.6823 36.1287 28.937 39.5996C29.6748 40.7353 30.5143 41.6917 31.365 42.3654C32.3077 43.1121 33.2631 43.5068 34.1278 43.5068C34.9926 43.5068 35.9479 43.1121 36.8907 42.3654C37.7411 41.6918 38.5807 40.7354 39.3187 39.5996C41.5734 36.1287 42.8665 31.1718 42.8665 26C42.8665 20.828 41.5733 15.8712 39.3186 12.4004C38.5808 11.2646 37.7412 10.3082 36.8907 9.63455ZM37.6817 38.5361C37.0578 39.4965 36.3651 40.2915 35.6786 40.8352C35.0928 41.2992 34.542 41.5547 34.1278 41.5547C33.7137 41.5547 33.1629 41.2992 32.5771 40.8352C31.8906 40.2914 31.198 39.4964 30.5741 38.5361C28.5196 35.3735 27.3414 30.8043 27.3414 26C27.3414 21.1957 28.5197 16.6264 30.5741 13.4639C31.1979 12.5036 31.8905 11.7086 32.5771 11.1649C33.1629 10.7009 33.7137 10.4453 34.1278 10.4453C34.5421 10.4453 35.0929 10.7009 35.6786 11.1648C36.3651 11.7085 37.0577 12.5035 37.6816 13.4638C39.7361 16.6263 40.9144 21.1956 40.9144 25.9999C40.9144 30.8042 39.7362 35.3735 37.6817 38.5361Z" fill="#2E3192"/>
</svg>
