<svg width="52" height="36" viewBox="0 0 52 36" fill="none" xmlns="http://www.w3.org/2000/svg">
<path d="M12.1875 24.5C9.83588 24.4405 7.59698 23.4798 5.93359 21.8164C4.2702 20.153 3.30948 17.9141 3.25001 15.5625C3.21332 14.0932 3.50974 12.6346 4.11706 11.2961C4.72438 9.95763 5.62684 8.77401 6.75676 7.83401C6.91396 7.68662 7.12328 7.60771 7.33866 7.61464C7.55404 7.62157 7.75784 7.71378 7.90523 7.87098C8.05263 8.02818 8.13154 8.23749 8.1246 8.45287C8.11767 8.66825 8.02546 8.87205 7.86826 9.01945C6.90314 9.80936 6.13161 10.8097 5.61278 11.9438C5.09395 13.078 4.84159 14.3158 4.87501 15.5625C4.92358 17.4866 5.7096 19.3185 7.07057 20.6795C8.43154 22.0404 10.2634 22.8264 12.1875 22.875C14.1116 22.8264 15.9435 22.0404 17.3045 20.6795C18.6654 19.3185 19.4514 17.4866 19.5 15.5625C19.5 11.6625 17.5825 9.95626 15.5529 8.15738C14.1761 7.08658 13.0298 5.74873 12.1826 4.22407C11.5079 5.50161 10.5915 6.63599 9.48433 7.56426C9.3239 7.70155 9.11633 7.771 8.90559 7.75789C8.69484 7.74478 8.49748 7.65015 8.35531 7.49403C8.21313 7.33792 8.13732 7.13259 8.14393 6.92154C8.15054 6.71049 8.23904 6.5103 8.3907 6.36338C9.88001 5.00732 11.2296 3.56838 11.3766 0.892822C11.3766 0.677334 11.4622 0.470671 11.6146 0.318298C11.767 0.165925 11.9737 0.0803223 12.1891 0.0803223C12.4046 0.0803223 12.6113 0.165925 12.7637 0.318298C12.916 0.470671 13.0016 0.677334 13.0016 0.892822C13.1641 3.86413 14.7729 5.29007 16.6343 6.94188C18.7379 8.80982 21.125 10.9313 21.125 15.5625C21.0655 17.9141 20.1048 20.153 18.4414 21.8164C16.778 23.4798 14.5392 24.4405 12.1875 24.5Z" fill="#2E3192"/>
<path d="M17.0625 16.375C16.847 16.375 16.6403 16.2894 16.488 16.137C16.3356 15.9847 16.25 15.778 16.25 15.5625C16.25 13.125 15.1938 12.1882 13.2811 10.4893L14.352 9.27051L13.8125 9.87501L14.3593 9.27376C16.3239 11.0166 17.875 12.3938 17.875 15.5625C17.875 15.778 17.7894 15.9847 17.637 16.137C17.4847 16.2894 17.278 16.375 17.0625 16.375ZM51.1875 31.8125H6.5C6.28451 31.8125 6.07785 31.7269 5.92548 31.5745C5.7731 31.4222 5.6875 31.2155 5.6875 31C5.6875 30.7845 5.7731 30.5779 5.92548 30.4255C6.07785 30.2731 6.28451 30.1875 6.5 30.1875H51.1875C51.403 30.1875 51.6097 30.2731 51.762 30.4255C51.9144 30.5779 52 30.7845 52 31C52 31.2155 51.9144 31.4222 51.762 31.5745C51.6097 31.7269 51.403 31.8125 51.1875 31.8125ZM4.0625 31.8125H0.8125C0.597012 31.8125 0.390349 31.7269 0.237976 31.5745C0.0856024 31.4222 0 31.2155 0 31C0 30.7845 0.0856024 30.5779 0.237976 30.4255C0.390349 30.2731 0.597012 30.1875 0.8125 30.1875H4.0625C4.27799 30.1875 4.48465 30.2731 4.63702 30.4255C4.7894 30.5779 4.875 30.7845 4.875 31C4.875 31.2155 4.7894 31.4222 4.63702 31.5745C4.48465 31.7269 4.27799 31.8125 4.0625 31.8125ZM51.1875 35.875H47.9375C47.722 35.875 47.5153 35.7894 47.363 35.637C47.2106 35.4847 47.125 35.278 47.125 35.0625C47.125 34.847 47.2106 34.6404 47.363 34.488C47.5153 34.3356 47.722 34.25 47.9375 34.25H51.1875C51.403 34.25 51.6097 34.3356 51.762 34.488C51.9144 34.6404 52 34.847 52 35.0625C52 35.278 51.9144 35.4847 51.762 35.637C51.6097 35.7894 51.403 35.875 51.1875 35.875ZM45.5 35.875H0.8125C0.597012 35.875 0.390349 35.7894 0.237976 35.637C0.0856024 35.4847 0 35.278 0 35.0625C0 34.847 0.0856024 34.6404 0.237976 34.488C0.390349 34.3356 0.597012 34.25 0.8125 34.25H45.5C45.7155 34.25 45.9222 34.3356 46.0745 34.488C46.2269 34.6404 46.3125 34.847 46.3125 35.0625C46.3125 35.278 46.2269 35.4847 46.0745 35.637C45.9222 35.7894 45.7155 35.875 45.5 35.875Z" fill="#2E3192"/>
<path d="M23.5625 31.8125C23.347 31.8125 23.1404 31.7268 22.9881 31.5745L16.4881 25.0745C16.3401 24.9212 16.2582 24.716 16.26 24.5029C16.2619 24.2899 16.3473 24.0861 16.498 23.9355C16.6486 23.7848 16.8524 23.6994 17.0654 23.6975C17.2785 23.6957 17.4837 23.7776 17.6369 23.9256L23.5625 29.8512L36.8006 16.6131C36.9538 16.4651 37.159 16.3832 37.3721 16.385C37.5851 16.3869 37.7889 16.4723 37.9395 16.623C38.0902 16.7736 38.1756 16.9774 38.1775 17.1905C38.1793 17.4035 38.0974 17.6087 37.9494 17.762L24.1369 31.5745C23.9846 31.7268 23.778 31.8125 23.5625 31.8125Z" fill="#2E3192"/>
<path d="M37.375 22.875C37.1595 22.875 36.9528 22.7894 36.8005 22.637C36.6481 22.4847 36.5625 22.278 36.5625 22.0625V17.1875C36.5625 16.972 36.6481 16.7653 36.8005 16.613C36.9528 16.4606 37.1595 16.375 37.375 16.375C37.5905 16.375 37.7972 16.4606 37.9495 16.613C38.1019 16.7653 38.1875 16.972 38.1875 17.1875V22.0625C38.1875 22.278 38.1019 22.4847 37.9495 22.637C37.7972 22.7894 37.5905 22.875 37.375 22.875Z" fill="#2E3192"/>
<path d="M37.375 18H32.5C32.2845 18 32.0778 17.9144 31.9255 17.762C31.7731 17.6097 31.6875 17.403 31.6875 17.1875C31.6875 16.972 31.7731 16.7653 31.9255 16.613C32.0778 16.4606 32.2845 16.375 32.5 16.375H37.375C37.5905 16.375 37.7972 16.4606 37.9495 16.613C38.1019 16.7653 38.1875 16.972 38.1875 17.1875C38.1875 17.403 38.1019 17.6097 37.9495 17.762C37.7972 17.9144 37.5905 18 37.375 18Z" fill="#2E3192"/>
<path d="M31.6875 31.8125C31.472 31.8125 31.2654 31.7268 31.1131 31.5745L21.3631 21.8245C21.2151 21.6712 21.1332 21.466 21.135 21.2529C21.1369 21.0399 21.2223 20.8361 21.373 20.6855C21.5236 20.5348 21.7274 20.4494 21.9404 20.4475C22.1535 20.4457 22.3587 20.5276 22.5119 20.6756L31.6875 29.8512L47.3631 14.1756C47.5163 14.0276 47.7215 13.9457 47.9346 13.9475C48.1476 13.9494 48.3514 14.0348 48.502 14.1855C48.6527 14.3361 48.7381 14.5399 48.74 14.753C48.7418 14.966 48.6599 15.1712 48.5119 15.3245L32.2619 31.5745C32.1096 31.7268 31.903 31.8125 31.6875 31.8125Z" fill="#2E3192"/>
<path d="M47.9375 20.4375C47.722 20.4375 47.5153 20.3519 47.363 20.1995C47.2106 20.0472 47.125 19.8405 47.125 19.625V14.75C47.125 14.5345 47.2106 14.3278 47.363 14.1755C47.5153 14.0231 47.722 13.9375 47.9375 13.9375C48.153 13.9375 48.3597 14.0231 48.512 14.1755C48.6644 14.3278 48.75 14.5345 48.75 14.75V19.625C48.75 19.8405 48.6644 20.0472 48.512 20.1995C48.3597 20.3519 48.153 20.4375 47.9375 20.4375Z" fill="#2E3192"/>
<path d="M47.9375 15.5625H43.0625C42.847 15.5625 42.6403 15.4769 42.488 15.3245C42.3356 15.1722 42.25 14.9655 42.25 14.75C42.25 14.5345 42.3356 14.3278 42.488 14.1755C42.6403 14.0231 42.847 13.9375 43.0625 13.9375H47.9375C48.153 13.9375 48.3597 14.0231 48.512 14.1755C48.6644 14.3278 48.75 14.5345 48.75 14.75C48.75 14.9655 48.6644 15.1722 48.512 15.3245C48.3597 15.4769 48.153 15.5625 47.9375 15.5625Z" fill="#2E3192"/>
</svg>
