<svg width="52" height="34" viewBox="0 0 52 34" fill="none" xmlns="http://www.w3.org/2000/svg">
<path d="M44.3702 26.154C44.2367 21.3069 42.2184 16.896 38.9953 13.6722H38.9952C35.5622 10.2399 30.9185 8.2893 25.9999 8.2893H25.9998L25.9971 8.2894C25.8614 8.2894 25.7262 8.29123 25.5913 8.29437L25.6045 8.29417C25.5627 8.29507 25.5208 8.29612 25.4789 8.29732L25.5591 8.29509C25.4256 8.29844 25.2922 8.30311 25.1588 8.3091C20.5796 8.5173 16.2578 10.4189 13.0045 13.6721L13.0044 13.6722C9.564 17.1133 7.75599 21.6092 7.62955 26.1549C7.62274 26.3992 7.42063 26.5925 7.17638 26.5925H19.377C18.7915 23.2019 20.682 19.5686 24.3723 18.428L36.3014 14.7412C36.7953 14.5887 37.2582 15.0516 37.1055 15.5455L33.6913 26.5925H44.8234C44.5787 26.5925 44.3769 26.3985 44.3702 26.154Z" stroke="#2E3192" stroke-width="2" stroke-miterlimit="10" stroke-linecap="round" stroke-linejoin="round"/>
<path d="M25.5913 8.29446C25.5806 8.29464 25.5699 8.29488 25.5591 8.29517L25.5913 8.29446Z" stroke="#2E3192" stroke-width="2" stroke-miterlimit="10" stroke-linecap="round" stroke-linejoin="round"/>
<path d="M25.5591 8.29505C25.3184 8.30104 25.1493 8.30957 25.1493 8.30957C25.2855 8.30338 25.4221 8.2985 25.5591 8.29505Z" stroke="#2E3192" stroke-width="2" stroke-miterlimit="10" stroke-linecap="round" stroke-linejoin="round"/>
<path d="M43.8491 8.81836C39.1036 4.07449 32.7146 1.42433 25.9999 1.42433V8.28922C30.9186 8.28922 35.5623 10.2398 38.9953 13.6721L41.6277 11.0396L43.8491 8.81836Z" stroke="#2E3192" stroke-width="2" stroke-miterlimit="10" stroke-linecap="round" stroke-linejoin="round"/>
<path d="M8.15036 8.81785L13.0045 13.6721H13.0046V13.672C16.4564 10.2202 21.111 8.28922 25.9999 8.28922V1.42433C19.6413 1.42433 13.4585 3.69922 8.15036 8.81785Z" stroke="#2E3192" stroke-width="2" stroke-miterlimit="10" stroke-linecap="round" stroke-linejoin="round"/>
<path d="M0.76344 26.126C0.758058 26.3816 0.961994 26.5925 1.21752 26.5925H7.17648C7.42074 26.5925 7.62285 26.3992 7.62955 26.1549C7.7561 21.6093 9.56411 17.1134 13.0045 13.6722L8.15036 8.81803C3.58717 13.3812 0.903088 19.5359 0.76344 26.126Z" stroke="#2E3192" stroke-width="2" stroke-miterlimit="10" stroke-linecap="round" stroke-linejoin="round"/>
<path d="M43.8495 8.81803L38.9953 13.6722C42.2185 16.8961 44.2367 21.307 44.3702 26.154C44.377 26.3986 44.5787 26.5925 44.8234 26.5925H50.7822C51.0377 26.5925 51.2419 26.3817 51.2364 26.1262C51.0993 19.6979 48.5204 13.4876 43.8495 8.81803Z" stroke="#2E3192" stroke-width="2" stroke-miterlimit="10" stroke-linecap="round" stroke-linejoin="round"/>
<path d="M28.9596 23.6535C28.8556 23.5045 28.7388 23.3649 28.6105 23.2363C27.3984 22.0242 25.4333 22.0242 24.2213 23.2363C23.0092 24.4483 23.0092 26.4133 24.2213 27.6254C25.4333 28.8374 27.3984 28.8374 28.6105 27.6254C28.7388 27.4968 28.8556 27.3572 28.9596 27.2082" stroke="#2E3192" stroke-width="2" stroke-miterlimit="10" stroke-linecap="round" stroke-linejoin="round"/>
<path d="M28.1933 32.3723C30.5394 31.8099 32.6085 30.0967 33.4188 27.4746L37.1056 15.5455C37.2582 15.0516 36.7953 14.5887 36.3014 14.7413L24.3723 18.428C19.1684 20.0364 17.542 26.602 21.3935 30.4534C22.3474 31.4075 23.4681 32.0249 24.6386 32.3355" stroke="#2E3192" stroke-width="2" stroke-miterlimit="10" stroke-linecap="round" stroke-linejoin="round"/>
</svg>
