<svg width="52" height="52" viewBox="0 0 52 52" fill="none" xmlns="http://www.w3.org/2000/svg">
<g clip-path="url(#clip0_5_1108)">
<path d="M50.9843 49.9687H46.5156V48.6199C46.5156 48.0592 46.0606 47.6042 45.5 47.6042C44.939 47.6042 44.4843 48.0592 44.4843 48.6199V49.9687H27.0156V48.6199C27.0156 48.0592 26.5609 47.6042 26 47.6042C25.4391 47.6042 24.9844 48.0592 24.9844 48.6199V49.9687H7.51566V48.6199C7.51566 48.0592 7.06097 47.6042 6.50004 47.6042C5.93911 47.6042 5.48442 48.0592 5.48442 48.6199V49.9687H1.01568C0.454748 49.9687 5.34058e-05 50.4237 5.34058e-05 50.9843C5.34058e-05 51.5453 0.454748 52 1.01568 52H50.9843C51.545 52 52 51.5453 52 50.9843C52 50.4237 51.5453 49.9687 50.9843 49.9687Z" fill="#2E3192"/>
<path d="M4.06295 44.4843C4.06295 45.0452 4.51754 45.4999 5.07857 45.4999H15.2475V46.8487C15.2475 47.4098 15.7021 47.8644 16.2631 47.8644C16.8237 47.8644 17.2787 47.4098 17.2787 46.8487V45.4999H34.7471V46.8487C34.7471 47.4098 35.2021 47.8644 35.7627 47.8644C36.3236 47.8644 36.7783 47.4098 36.7783 46.8487V45.4999H50.9843C51.545 45.4999 52 45.0452 52 44.4843C52 43.9236 51.545 43.4686 50.9843 43.4686H5.07857C4.51754 43.4686 4.06295 43.9233 4.06295 44.4843ZM1.01568 45.4999C1.28268 45.4999 1.54482 45.3912 1.73372 45.2023C1.92263 45.0134 2.0313 44.7514 2.0313 44.4843C2.0313 44.2172 1.92263 43.9551 1.73372 43.7662C1.54482 43.5773 1.28279 43.4686 1.01568 43.4686C0.748568 43.4686 0.486537 43.5773 0.297631 43.7662C0.108725 43.9554 5.34058e-05 44.2172 5.34058e-05 44.4843C5.34058e-05 44.7514 0.108725 45.0134 0.297631 45.2023C0.488553 45.392 0.746515 45.499 1.01568 45.4999ZM2.8375 23.8354C5.18095 25.0434 9.40848 26.6243 15.4744 26.6243C18.2365 26.6243 21.3797 26.2967 24.8991 25.4564C25.103 25.408 25.3038 25.3581 25.5045 25.3077C25.6812 25.2635 25.8428 25.1727 25.9723 25.0446L29.734 21.3225L30.4831 22.8142C30.5973 23.0419 30.793 23.2183 31.0312 23.3084C31.2695 23.3986 31.5329 23.3959 31.7692 23.301C35.1492 21.943 37.9513 20.3025 40.0978 18.4252C40.2054 18.3311 40.292 18.2153 40.3518 18.0854C40.4115 17.9555 40.4431 17.8144 40.4445 17.6714L40.4674 15.5081L40.944 15.9845C41.0476 16.0879 41.1723 16.1677 41.3096 16.2185C41.447 16.2693 41.5936 16.2898 41.7396 16.2787C41.8856 16.2675 42.0274 16.225 42.1555 16.1539C42.2835 16.0829 42.3946 15.985 42.4813 15.8671C44.6454 12.9171 44.9807 9.8107 43.4885 7.27164C43.971 6.90099 44.4487 6.52416 44.9216 6.14125L50.2742 1.80474C50.7098 1.45161 50.7772 0.812074 50.4237 0.376473C50.0711 -0.0595337 49.4311 -0.126565 48.9955 0.226466L43.6429 4.56318C43.1774 4.93997 42.7072 5.31094 42.2325 5.67599C40.2508 3.66374 38.1061 2.59104 35.6849 2.40061C32.6336 2.16021 29.1607 3.29913 25.0645 5.88115C24.371 6.31868 23.9886 6.55075 23.2943 6.97244L22.7837 7.2823C22.6406 7.36933 22.5212 7.4904 22.4362 7.63473C22.3512 7.77907 22.3032 7.94219 22.2964 8.10957C22.2897 8.27695 22.3245 8.44339 22.3977 8.59407C22.4709 8.74475 22.5802 8.875 22.7159 8.97321L23.1725 9.3036L20.6322 8.88028C20.3945 8.84099 20.1505 8.88726 19.9436 9.01089C13.9915 12.5727 6.60394 16.8113 2.73035 19.0211C2.30238 19.2648 1.94822 19.6196 1.70533 20.0481C1.46244 20.4765 1.33985 20.9626 1.35053 21.455C1.36085 21.949 1.50447 22.4309 1.7662 22.85C2.02793 23.269 2.39815 23.6095 2.8375 23.8354ZM41.4946 13.6624L40.1954 12.3632C39.9061 12.074 39.472 11.9867 39.0936 12.141C38.7152 12.2954 38.466 12.662 38.4616 13.0705L38.4183 17.1882C36.6776 18.6375 34.4808 19.9359 31.874 21.0575L30.9218 19.1611C30.8499 19.0178 30.7451 18.8936 30.616 18.7986C30.4868 18.7036 30.337 18.6405 30.1788 18.6145C30.0206 18.5885 29.8585 18.6003 29.7058 18.649C29.553 18.6977 29.414 18.7818 29.3 18.8945L24.7415 23.4041C24.6376 23.4299 24.5333 23.4557 24.4277 23.4807C21.0659 24.2829 18.0794 24.5948 15.4652 24.5948C9.82742 24.5948 5.92713 23.1431 3.76822 22.0299L3.76578 22.0286C3.81159 22.0324 3.8576 22.0331 3.9035 22.0307C11.3574 21.5981 18.6979 20.0036 25.6596 17.3049C31.4121 15.0777 36.8532 12.1173 41.8478 8.49709C42.6603 10.032 42.5421 11.8062 41.4948 13.6625L41.4946 13.6624ZM20.6659 10.9457L27.1049 12.0181C27.3308 12.0557 27.5628 12.016 27.7632 11.9052C27.9637 11.7945 28.1208 11.6192 28.2091 11.4079C28.2974 11.1966 28.3117 10.9617 28.2497 10.7412C28.1877 10.5208 28.053 10.3277 27.8674 10.1935L25.1451 8.22379C25.4807 8.01796 25.815 7.80993 26.148 7.59969C29.8601 5.25939 32.9277 4.22 35.5254 4.42546C37.3861 4.57232 39.0064 5.3645 40.5861 6.90459C30.2109 14.4179 18.1091 18.8795 5.28881 19.8991C9.30174 17.6032 15.4823 14.0418 20.6659 10.9457ZM12.5668 38.0184C13.1274 38.0184 13.5824 37.5634 13.5824 37.0028C13.5824 36.4418 13.1274 35.9872 12.5668 35.9872H12.5546C11.9935 35.9872 11.539 36.4418 11.539 37.0028C11.539 37.5634 11.9935 38.0184 12.5546 38.0184H12.5668ZM8.09487 36.7683C8.25368 36.8652 8.43615 36.9164 8.62218 36.9163C8.79662 36.9165 8.96818 36.8718 9.12029 36.7864C9.2724 36.701 9.39992 36.5778 9.49054 36.4288C9.78213 35.9494 9.63019 35.3247 9.15102 35.033C7.1733 33.8294 5.99223 31.7282 5.99223 29.4125C5.99223 28.852 5.53753 28.3969 4.97661 28.3969C4.41568 28.3969 3.96098 28.852 3.96098 29.4125C3.96098 32.4428 5.50666 35.1924 8.09487 36.7683ZM46.5156 24.6209C46.5156 24.0603 46.0606 23.6053 45.5 23.6053C44.939 23.6053 44.4843 24.0603 44.4843 24.6209C44.4843 26.5252 42.9351 28.074 41.0312 28.074C40.4703 28.074 40.0156 28.529 40.0156 29.0897C40.0156 29.6506 40.4703 30.1053 41.0312 30.1053C44.0554 30.1053 46.5156 27.6451 46.5156 24.6209Z" fill="#2E3192"/>
</g>
<defs>
<clipPath id="clip0_5_1108">
<rect width="52" height="52" fill="white"/>
</clipPath>
</defs>
</svg>
